  0
SECTION
  2
BLOCKS
  0
ENDSEC
  0
SECTION
  2
ENTITIES
  0
LINE
  8
0
 10
215
 20
393.175
 11
110
 21
393.175
  0
LINE
  8
0
 10
110
 20
393.175
 11
110
 21
333.175
  0
LINE
  8
0
 10
110
 20
333.175
 11
215
 21
333.175
  0
LINE
  8
0
 10
215
 20
333.175
 11
215
 21
393.175
  0
LINE
  8
0
 10
194.791
 20
383.686
 11
194.382
 21
383.773
  0
LINE
  8
0
 10
194.382
 20
383.773
 11
194
 21
383.943
  0
LINE
  8
0
 10
194
 20
383.943
 11
193.662
 21
384.189
  0
LINE
  8
0
 10
193.662
 20
384.189
 11
193.382
 21
384.499
  0
LINE
  8
0
 10
193.382
 20
384.499
 11
193.173
 21
384.862
  0
LINE
  8
0
 10
193.173
 20
384.862
 11
193.044
 21
385.259
  0
LINE
  8
0
 10
193.044
 20
385.259
 11
193
 21
385.675
  0
LINE
  8
0
 10
193
 20
385.675
 11
193.044
 21
386.091
  0
LINE
  8
0
 10
193.044
 20
386.091
 11
193.173
 21
386.488
  0
LINE
  8
0
 10
193.173
 20
386.488
 11
193.382
 21
386.851
  0
LINE
  8
0
 10
193.382
 20
386.851
 11
193.662
 21
387.161
  0
LINE
  8
0
 10
193.662
 20
387.161
 11
194
 21
387.407
  0
LINE
  8
0
 10
194
 20
387.407
 11
194.382
 21
387.577
  0
LINE
  8
0
 10
194.382
 20
387.577
 11
194.791
 21
387.664
  0
LINE
  8
0
 10
194.791
 20
387.664
 11
195.209
 21
387.664
  0
LINE
  8
0
 10
195.209
 20
387.664
 11
195.618
 21
387.577
  0
LINE
  8
0
 10
195.618
 20
387.577
 11
196
 21
387.407
  0
LINE
  8
0
 10
196
 20
387.407
 11
196.338
 21
387.161
  0
LINE
  8
0
 10
196.338
 20
387.161
 11
196.618
 21
386.851
  0
LINE
  8
0
 10
196.618
 20
386.851
 11
196.827
 21
386.488
  0
LINE
  8
0
 10
196.827
 20
386.488
 11
196.956
 21
386.091
  0
LINE
  8
0
 10
196.956
 20
386.091
 11
197
 21
385.675
  0
LINE
  8
0
 10
197
 20
385.675
 11
196.956
 21
385.259
  0
LINE
  8
0
 10
196.956
 20
385.259
 11
196.827
 21
384.862
  0
LINE
  8
0
 10
196.827
 20
384.862
 11
196.618
 21
384.499
  0
LINE
  8
0
 10
196.618
 20
384.499
 11
196.338
 21
384.189
  0
LINE
  8
0
 10
196.338
 20
384.189
 11
196
 21
383.943
  0
LINE
  8
0
 10
196
 20
383.943
 11
195.618
 21
383.773
  0
LINE
  8
0
 10
195.618
 20
383.773
 11
195.209
 21
383.686
  0
LINE
  8
0
 10
195.209
 20
383.686
 11
194.791
 21
383.686
  0
LINE
  8
0
 10
129.791
 20
383.686
 11
129.382
 21
383.773
  0
LINE
  8
0
 10
129.382
 20
383.773
 11
129
 21
383.943
  0
LINE
  8
0
 10
129
 20
383.943
 11
128.662
 21
384.189
  0
LINE
  8
0
 10
128.662
 20
384.189
 11
128.382
 21
384.499
  0
LINE
  8
0
 10
128.382
 20
384.499
 11
128.173
 21
384.862
  0
LINE
  8
0
 10
128.173
 20
384.862
 11
128.044
 21
385.259
  0
LINE
  8
0
 10
128.044
 20
385.259
 11
128
 21
385.675
  0
LINE
  8
0
 10
128
 20
385.675
 11
128.044
 21
386.091
  0
LINE
  8
0
 10
128.044
 20
386.091
 11
128.173
 21
386.488
  0
LINE
  8
0
 10
128.173
 20
386.488
 11
128.382
 21
386.851
  0
LINE
  8
0
 10
128.382
 20
386.851
 11
128.662
 21
387.161
  0
LINE
  8
0
 10
128.662
 20
387.161
 11
129
 21
387.407
  0
LINE
  8
0
 10
129
 20
387.407
 11
129.382
 21
387.577
  0
LINE
  8
0
 10
129.382
 20
387.577
 11
129.791
 21
387.664
  0
LINE
  8
0
 10
129.791
 20
387.664
 11
130.209
 21
387.664
  0
LINE
  8
0
 10
130.209
 20
387.664
 11
130.618
 21
387.577
  0
LINE
  8
0
 10
130.618
 20
387.577
 11
131
 21
387.407
  0
LINE
  8
0
 10
131
 20
387.407
 11
131.338
 21
387.161
  0
LINE
  8
0
 10
131.338
 20
387.161
 11
131.618
 21
386.851
  0
LINE
  8
0
 10
131.618
 20
386.851
 11
131.827
 21
386.488
  0
LINE
  8
0
 10
131.827
 20
386.488
 11
131.956
 21
386.091
  0
LINE
  8
0
 10
131.956
 20
386.091
 11
132
 21
385.675
  0
LINE
  8
0
 10
132
 20
385.675
 11
131.956
 21
385.259
  0
LINE
  8
0
 10
131.956
 20
385.259
 11
131.827
 21
384.862
  0
LINE
  8
0
 10
131.827
 20
384.862
 11
131.618
 21
384.499
  0
LINE
  8
0
 10
131.618
 20
384.499
 11
131.338
 21
384.189
  0
LINE
  8
0
 10
131.338
 20
384.189
 11
131
 21
383.943
  0
LINE
  8
0
 10
131
 20
383.943
 11
130.618
 21
383.773
  0
LINE
  8
0
 10
130.618
 20
383.773
 11
130.209
 21
383.686
  0
LINE
  8
0
 10
130.209
 20
383.686
 11
129.791
 21
383.686
  0
LINE
  8
0
 10
207.291
 20
371.186
 11
206.882
 21
371.273
  0
LINE
  8
0
 10
206.882
 20
371.273
 11
206.5
 21
371.443
  0
LINE
  8
0
 10
206.5
 20
371.443
 11
206.162
 21
371.689
  0
LINE
  8
0
 10
206.162
 20
371.689
 11
205.882
 21
371.999
  0
LINE
  8
0
 10
205.882
 20
371.999
 11
205.673
 21
372.362
  0
LINE
  8
0
 10
205.673
 20
372.362
 11
205.544
 21
372.759
  0
LINE
  8
0
 10
205.544
 20
372.759
 11
205.5
 21
373.175
  0
LINE
  8
0
 10
205.5
 20
373.175
 11
205.544
 21
373.591
  0
LINE
  8
0
 10
205.544
 20
373.591
 11
205.673
 21
373.988
  0
LINE
  8
0
 10
205.673
 20
373.988
 11
205.882
 21
374.351
  0
LINE
  8
0
 10
205.882
 20
374.351
 11
206.162
 21
374.661
  0
LINE
  8
0
 10
206.162
 20
374.661
 11
206.5
 21
374.907
  0
LINE
  8
0
 10
206.5
 20
374.907
 11
206.882
 21
375.077
  0
LINE
  8
0
 10
206.882
 20
375.077
 11
207.291
 21
375.164
  0
LINE
  8
0
 10
207.291
 20
375.164
 11
207.709
 21
375.164
  0
LINE
  8
0
 10
207.709
 20
375.164
 11
208.118
 21
375.077
  0
LINE
  8
0
 10
208.118
 20
375.077
 11
208.5
 21
374.907
  0
LINE
  8
0
 10
208.5
 20
374.907
 11
208.838
 21
374.661
  0
LINE
  8
0
 10
208.838
 20
374.661
 11
209.118
 21
374.351
  0
LINE
  8
0
 10
209.118
 20
374.351
 11
209.327
 21
373.988
  0
LINE
  8
0
 10
209.327
 20
373.988
 11
209.456
 21
373.591
  0
LINE
  8
0
 10
209.456
 20
373.591
 11
209.5
 21
373.175
  0
LINE
  8
0
 10
209.5
 20
373.175
 11
209.456
 21
372.759
  0
LINE
  8
0
 10
209.456
 20
372.759
 11
209.327
 21
372.362
  0
LINE
  8
0
 10
209.327
 20
372.362
 11
209.118
 21
371.999
  0
LINE
  8
0
 10
209.118
 20
371.999
 11
208.838
 21
371.689
  0
LINE
  8
0
 10
208.838
 20
371.689
 11
208.5
 21
371.443
  0
LINE
  8
0
 10
208.5
 20
371.443
 11
208.118
 21
371.273
  0
LINE
  8
0
 10
208.118
 20
371.273
 11
207.709
 21
371.186
  0
LINE
  8
0
 10
207.709
 20
371.186
 11
207.291
 21
371.186
  0
LINE
  8
0
 10
117.291
 20
371.186
 11
116.882
 21
371.273
  0
LINE
  8
0
 10
116.882
 20
371.273
 11
116.5
 21
371.443
  0
LINE
  8
0
 10
116.5
 20
371.443
 11
116.162
 21
371.689
  0
LINE
  8
0
 10
116.162
 20
371.689
 11
115.882
 21
371.999
  0
LINE
  8
0
 10
115.882
 20
371.999
 11
115.673
 21
372.362
  0
LINE
  8
0
 10
115.673
 20
372.362
 11
115.544
 21
372.759
  0
LINE
  8
0
 10
115.544
 20
372.759
 11
115.5
 21
373.175
  0
LINE
  8
0
 10
115.5
 20
373.175
 11
115.544
 21
373.591
  0
LINE
  8
0
 10
115.544
 20
373.591
 11
115.673
 21
373.988
  0
LINE
  8
0
 10
115.673
 20
373.988
 11
115.882
 21
374.351
  0
LINE
  8
0
 10
115.882
 20
374.351
 11
116.162
 21
374.661
  0
LINE
  8
0
 10
116.162
 20
374.661
 11
116.5
 21
374.907
  0
LINE
  8
0
 10
116.5
 20
374.907
 11
116.882
 21
375.077
  0
LINE
  8
0
 10
116.882
 20
375.077
 11
117.291
 21
375.164
  0
LINE
  8
0
 10
117.291
 20
375.164
 11
117.709
 21
375.164
  0
LINE
  8
0
 10
117.709
 20
375.164
 11
118.118
 21
375.077
  0
LINE
  8
0
 10
118.118
 20
375.077
 11
118.5
 21
374.907
  0
LINE
  8
0
 10
118.5
 20
374.907
 11
118.838
 21
374.661
  0
LINE
  8
0
 10
118.838
 20
374.661
 11
119.118
 21
374.351
  0
LINE
  8
0
 10
119.118
 20
374.351
 11
119.327
 21
373.988
  0
LINE
  8
0
 10
119.327
 20
373.988
 11
119.456
 21
373.591
  0
LINE
  8
0
 10
119.456
 20
373.591
 11
119.5
 21
373.175
  0
LINE
  8
0
 10
119.5
 20
373.175
 11
119.456
 21
372.759
  0
LINE
  8
0
 10
119.456
 20
372.759
 11
119.327
 21
372.362
  0
LINE
  8
0
 10
119.327
 20
372.362
 11
119.118
 21
371.999
  0
LINE
  8
0
 10
119.118
 20
371.999
 11
118.838
 21
371.689
  0
LINE
  8
0
 10
118.838
 20
371.689
 11
118.5
 21
371.443
  0
LINE
  8
0
 10
118.5
 20
371.443
 11
118.118
 21
371.273
  0
LINE
  8
0
 10
118.118
 20
371.273
 11
117.709
 21
371.186
  0
LINE
  8
0
 10
117.709
 20
371.186
 11
117.291
 21
371.186
  0
LINE
  8
0
 10
117.291
 20
351.186
 11
116.882
 21
351.273
  0
LINE
  8
0
 10
116.882
 20
351.273
 11
116.5
 21
351.443
  0
LINE
  8
0
 10
116.5
 20
351.443
 11
116.162
 21
351.689
  0
LINE
  8
0
 10
116.162
 20
351.689
 11
115.882
 21
351.999
  0
LINE
  8
0
 10
115.882
 20
351.999
 11
115.673
 21
352.362
  0
LINE
  8
0
 10
115.673
 20
352.362
 11
115.544
 21
352.759
  0
LINE
  8
0
 10
115.544
 20
352.759
 11
115.5
 21
353.175
  0
LINE
  8
0
 10
115.5
 20
353.175
 11
115.544
 21
353.591
  0
LINE
  8
0
 10
115.544
 20
353.591
 11
115.673
 21
353.988
  0
LINE
  8
0
 10
115.673
 20
353.988
 11
115.882
 21
354.351
  0
LINE
  8
0
 10
115.882
 20
354.351
 11
116.162
 21
354.661
  0
LINE
  8
0
 10
116.162
 20
354.661
 11
116.5
 21
354.907
  0
LINE
  8
0
 10
116.5
 20
354.907
 11
116.882
 21
355.077
  0
LINE
  8
0
 10
116.882
 20
355.077
 11
117.291
 21
355.164
  0
LINE
  8
0
 10
117.291
 20
355.164
 11
117.709
 21
355.164
  0
LINE
  8
0
 10
117.709
 20
355.164
 11
118.118
 21
355.077
  0
LINE
  8
0
 10
118.118
 20
355.077
 11
118.5
 21
354.907
  0
LINE
  8
0
 10
118.5
 20
354.907
 11
118.838
 21
354.661
  0
LINE
  8
0
 10
118.838
 20
354.661
 11
119.118
 21
354.351
  0
LINE
  8
0
 10
119.118
 20
354.351
 11
119.327
 21
353.988
  0
LINE
  8
0
 10
119.327
 20
353.988
 11
119.456
 21
353.591
  0
LINE
  8
0
 10
119.456
 20
353.591
 11
119.5
 21
353.175
  0
LINE
  8
0
 10
119.5
 20
353.175
 11
119.456
 21
352.759
  0
LINE
  8
0
 10
119.456
 20
352.759
 11
119.327
 21
352.362
  0
LINE
  8
0
 10
119.327
 20
352.362
 11
119.118
 21
351.999
  0
LINE
  8
0
 10
119.118
 20
351.999
 11
118.838
 21
351.689
  0
LINE
  8
0
 10
118.838
 20
351.689
 11
118.5
 21
351.443
  0
LINE
  8
0
 10
118.5
 20
351.443
 11
118.118
 21
351.273
  0
LINE
  8
0
 10
118.118
 20
351.273
 11
117.709
 21
351.186
  0
LINE
  8
0
 10
117.709
 20
351.186
 11
117.291
 21
351.186
  0
LINE
  8
0
 10
207.291
 20
351.186
 11
206.882
 21
351.273
  0
LINE
  8
0
 10
206.882
 20
351.273
 11
206.5
 21
351.443
  0
LINE
  8
0
 10
206.5
 20
351.443
 11
206.162
 21
351.689
  0
LINE
  8
0
 10
206.162
 20
351.689
 11
205.882
 21
351.999
  0
LINE
  8
0
 10
205.882
 20
351.999
 11
205.673
 21
352.362
  0
LINE
  8
0
 10
205.673
 20
352.362
 11
205.544
 21
352.759
  0
LINE
  8
0
 10
205.544
 20
352.759
 11
205.5
 21
353.175
  0
LINE
  8
0
 10
205.5
 20
353.175
 11
205.544
 21
353.591
  0
LINE
  8
0
 10
205.544
 20
353.591
 11
205.673
 21
353.988
  0
LINE
  8
0
 10
205.673
 20
353.988
 11
205.882
 21
354.351
  0
LINE
  8
0
 10
205.882
 20
354.351
 11
206.162
 21
354.661
  0
LINE
  8
0
 10
206.162
 20
354.661
 11
206.5
 21
354.907
  0
LINE
  8
0
 10
206.5
 20
354.907
 11
206.882
 21
355.077
  0
LINE
  8
0
 10
206.882
 20
355.077
 11
207.291
 21
355.164
  0
LINE
  8
0
 10
207.291
 20
355.164
 11
207.709
 21
355.164
  0
LINE
  8
0
 10
207.709
 20
355.164
 11
208.118
 21
355.077
  0
LINE
  8
0
 10
208.118
 20
355.077
 11
208.5
 21
354.907
  0
LINE
  8
0
 10
208.5
 20
354.907
 11
208.838
 21
354.661
  0
LINE
  8
0
 10
208.838
 20
354.661
 11
209.118
 21
354.351
  0
LINE
  8
0
 10
209.118
 20
354.351
 11
209.327
 21
353.988
  0
LINE
  8
0
 10
209.327
 20
353.988
 11
209.456
 21
353.591
  0
LINE
  8
0
 10
209.456
 20
353.591
 11
209.5
 21
353.175
  0
LINE
  8
0
 10
209.5
 20
353.175
 11
209.456
 21
352.759
  0
LINE
  8
0
 10
209.456
 20
352.759
 11
209.327
 21
352.362
  0
LINE
  8
0
 10
209.327
 20
352.362
 11
209.118
 21
351.999
  0
LINE
  8
0
 10
209.118
 20
351.999
 11
208.838
 21
351.689
  0
LINE
  8
0
 10
208.838
 20
351.689
 11
208.5
 21
351.443
  0
LINE
  8
0
 10
208.5
 20
351.443
 11
208.118
 21
351.273
  0
LINE
  8
0
 10
208.118
 20
351.273
 11
207.709
 21
351.186
  0
LINE
  8
0
 10
207.709
 20
351.186
 11
207.291
 21
351.186
  0
LINE
  8
0
 10
194.791
 20
338.686
 11
194.382
 21
338.773
  0
LINE
  8
0
 10
194.382
 20
338.773
 11
194
 21
338.943
  0
LINE
  8
0
 10
194
 20
338.943
 11
193.662
 21
339.189
  0
LINE
  8
0
 10
193.662
 20
339.189
 11
193.382
 21
339.499
  0
LINE
  8
0
 10
193.382
 20
339.499
 11
193.173
 21
339.862
  0
LINE
  8
0
 10
193.173
 20
339.862
 11
193.044
 21
340.259
  0
LINE
  8
0
 10
193.044
 20
340.259
 11
193
 21
340.675
  0
LINE
  8
0
 10
193
 20
340.675
 11
193.044
 21
341.091
  0
LINE
  8
0
 10
193.044
 20
341.091
 11
193.173
 21
341.488
  0
LINE
  8
0
 10
193.173
 20
341.488
 11
193.382
 21
341.851
  0
LINE
  8
0
 10
193.382
 20
341.851
 11
193.662
 21
342.161
  0
LINE
  8
0
 10
193.662
 20
342.161
 11
194
 21
342.407
  0
LINE
  8
0
 10
194
 20
342.407
 11
194.382
 21
342.577
  0
LINE
  8
0
 10
194.382
 20
342.577
 11
194.791
 21
342.664
  0
LINE
  8
0
 10
194.791
 20
342.664
 11
195.209
 21
342.664
  0
LINE
  8
0
 10
195.209
 20
342.664
 11
195.618
 21
342.577
  0
LINE
  8
0
 10
195.618
 20
342.577
 11
196
 21
342.407
  0
LINE
  8
0
 10
196
 20
342.407
 11
196.338
 21
342.161
  0
LINE
  8
0
 10
196.338
 20
342.161
 11
196.618
 21
341.851
  0
LINE
  8
0
 10
196.618
 20
341.851
 11
196.827
 21
341.488
  0
LINE
  8
0
 10
196.827
 20
341.488
 11
196.956
 21
341.091
  0
LINE
  8
0
 10
196.956
 20
341.091
 11
197
 21
340.675
  0
LINE
  8
0
 10
197
 20
340.675
 11
196.956
 21
340.259
  0
LINE
  8
0
 10
196.956
 20
340.259
 11
196.827
 21
339.862
  0
LINE
  8
0
 10
196.827
 20
339.862
 11
196.618
 21
339.499
  0
LINE
  8
0
 10
196.618
 20
339.499
 11
196.338
 21
339.189
  0
LINE
  8
0
 10
196.338
 20
339.189
 11
196
 21
338.943
  0
LINE
  8
0
 10
196
 20
338.943
 11
195.618
 21
338.773
  0
LINE
  8
0
 10
195.618
 20
338.773
 11
195.209
 21
338.686
  0
LINE
  8
0
 10
195.209
 20
338.686
 11
194.791
 21
338.686
  0
LINE
  8
0
 10
129.791
 20
338.686
 11
129.382
 21
338.773
  0
LINE
  8
0
 10
129.382
 20
338.773
 11
129
 21
338.943
  0
LINE
  8
0
 10
129
 20
338.943
 11
128.662
 21
339.189
  0
LINE
  8
0
 10
128.662
 20
339.189
 11
128.382
 21
339.499
  0
LINE
  8
0
 10
128.382
 20
339.499
 11
128.173
 21
339.862
  0
LINE
  8
0
 10
128.173
 20
339.862
 11
128.044
 21
340.259
  0
LINE
  8
0
 10
128.044
 20
340.259
 11
128
 21
340.675
  0
LINE
  8
0
 10
128
 20
340.675
 11
128.044
 21
341.091
  0
LINE
  8
0
 10
128.044
 20
341.091
 11
128.173
 21
341.488
  0
LINE
  8
0
 10
128.173
 20
341.488
 11
128.382
 21
341.851
  0
LINE
  8
0
 10
128.382
 20
341.851
 11
128.662
 21
342.161
  0
LINE
  8
0
 10
128.662
 20
342.161
 11
129
 21
342.407
  0
LINE
  8
0
 10
129
 20
342.407
 11
129.382
 21
342.577
  0
LINE
  8
0
 10
129.382
 20
342.577
 11
129.791
 21
342.664
  0
LINE
  8
0
 10
129.791
 20
342.664
 11
130.209
 21
342.664
  0
LINE
  8
0
 10
130.209
 20
342.664
 11
130.618
 21
342.577
  0
LINE
  8
0
 10
130.618
 20
342.577
 11
131
 21
342.407
  0
LINE
  8
0
 10
131
 20
342.407
 11
131.338
 21
342.161
  0
LINE
  8
0
 10
131.338
 20
342.161
 11
131.618
 21
341.851
  0
LINE
  8
0
 10
131.618
 20
341.851
 11
131.827
 21
341.488
  0
LINE
  8
0
 10
131.827
 20
341.488
 11
131.956
 21
341.091
  0
LINE
  8
0
 10
131.956
 20
341.091
 11
132
 21
340.675
  0
LINE
  8
0
 10
132
 20
340.675
 11
131.956
 21
340.259
  0
LINE
  8
0
 10
131.956
 20
340.259
 11
131.827
 21
339.862
  0
LINE
  8
0
 10
131.827
 20
339.862
 11
131.618
 21
339.499
  0
LINE
  8
0
 10
131.618
 20
339.499
 11
131.338
 21
339.189
  0
LINE
  8
0
 10
131.338
 20
339.189
 11
131
 21
338.943
  0
LINE
  8
0
 10
131
 20
338.943
 11
130.618
 21
338.773
  0
LINE
  8
0
 10
130.618
 20
338.773
 11
130.209
 21
338.686
  0
LINE
  8
0
 10
130.209
 20
338.686
 11
129.791
 21
338.686
  0
LINE
  8
0
 10
105
 20
393.175
 11
0
 21
393.175
  0
LINE
  8
0
 10
0
 20
393.175
 11
0
 21
333.175
  0
LINE
  8
0
 10
0
 20
333.175
 11
105
 21
333.175
  0
LINE
  8
0
 10
105
 20
333.175
 11
105
 21
393.175
  0
LINE
  8
0
 10
19.7909
 20
383.686
 11
19.382
 21
383.773
  0
LINE
  8
0
 10
19.382
 20
383.773
 11
19
 21
383.943
  0
LINE
  8
0
 10
19
 20
383.943
 11
18.6617
 21
384.189
  0
LINE
  8
0
 10
18.6617
 20
384.189
 11
18.382
 21
384.499
  0
LINE
  8
0
 10
18.382
 20
384.499
 11
18.1729
 21
384.862
  0
LINE
  8
0
 10
18.1729
 20
384.862
 11
18.0437
 21
385.259
  0
LINE
  8
0
 10
18.0437
 20
385.259
 11
18
 21
385.675
  0
LINE
  8
0
 10
18
 20
385.675
 11
18.0437
 21
386.091
  0
LINE
  8
0
 10
18.0437
 20
386.091
 11
18.1729
 21
386.488
  0
LINE
  8
0
 10
18.1729
 20
386.488
 11
18.382
 21
386.851
  0
LINE
  8
0
 10
18.382
 20
386.851
 11
18.6617
 21
387.161
  0
LINE
  8
0
 10
18.6617
 20
387.161
 11
19
 21
387.407
  0
LINE
  8
0
 10
19
 20
387.407
 11
19.382
 21
387.577
  0
LINE
  8
0
 10
19.382
 20
387.577
 11
19.7909
 21
387.664
  0
LINE
  8
0
 10
19.7909
 20
387.664
 11
20.209
 21
387.664
  0
LINE
  8
0
 10
20.209
 20
387.664
 11
20.618
 21
387.577
  0
LINE
  8
0
 10
20.618
 20
387.577
 11
21
 21
387.407
  0
LINE
  8
0
 10
21
 20
387.407
 11
21.3383
 21
387.161
  0
LINE
  8
0
 10
21.3383
 20
387.161
 11
21.618
 21
386.851
  0
LINE
  8
0
 10
21.618
 20
386.851
 11
21.8271
 21
386.488
  0
LINE
  8
0
 10
21.8271
 20
386.488
 11
21.9563
 21
386.091
  0
LINE
  8
0
 10
21.9563
 20
386.091
 11
22
 21
385.675
  0
LINE
  8
0
 10
22
 20
385.675
 11
21.9563
 21
385.259
  0
LINE
  8
0
 10
21.9563
 20
385.259
 11
21.8271
 21
384.862
  0
LINE
  8
0
 10
21.8271
 20
384.862
 11
21.618
 21
384.499
  0
LINE
  8
0
 10
21.618
 20
384.499
 11
21.3383
 21
384.189
  0
LINE
  8
0
 10
21.3383
 20
384.189
 11
21
 21
383.943
  0
LINE
  8
0
 10
21
 20
383.943
 11
20.618
 21
383.773
  0
LINE
  8
0
 10
20.618
 20
383.773
 11
20.209
 21
383.686
  0
LINE
  8
0
 10
20.209
 20
383.686
 11
19.7909
 21
383.686
  0
LINE
  8
0
 10
84.7909
 20
383.686
 11
84.382
 21
383.773
  0
LINE
  8
0
 10
84.382
 20
383.773
 11
84
 21
383.943
  0
LINE
  8
0
 10
84
 20
383.943
 11
83.6617
 21
384.189
  0
LINE
  8
0
 10
83.6617
 20
384.189
 11
83.382
 21
384.499
  0
LINE
  8
0
 10
83.382
 20
384.499
 11
83.1729
 21
384.862
  0
LINE
  8
0
 10
83.1729
 20
384.862
 11
83.0437
 21
385.259
  0
LINE
  8
0
 10
83.0437
 20
385.259
 11
83
 21
385.675
  0
LINE
  8
0
 10
83
 20
385.675
 11
83.0437
 21
386.091
  0
LINE
  8
0
 10
83.0437
 20
386.091
 11
83.1729
 21
386.488
  0
LINE
  8
0
 10
83.1729
 20
386.488
 11
83.382
 21
386.851
  0
LINE
  8
0
 10
83.382
 20
386.851
 11
83.6617
 21
387.161
  0
LINE
  8
0
 10
83.6617
 20
387.161
 11
84
 21
387.407
  0
LINE
  8
0
 10
84
 20
387.407
 11
84.382
 21
387.577
  0
LINE
  8
0
 10
84.382
 20
387.577
 11
84.7909
 21
387.664
  0
LINE
  8
0
 10
84.7909
 20
387.664
 11
85.2091
 21
387.664
  0
LINE
  8
0
 10
85.2091
 20
387.664
 11
85.618
 21
387.577
  0
LINE
  8
0
 10
85.618
 20
387.577
 11
86
 21
387.407
  0
LINE
  8
0
 10
86
 20
387.407
 11
86.3383
 21
387.161
  0
LINE
  8
0
 10
86.3383
 20
387.161
 11
86.618
 21
386.851
  0
LINE
  8
0
 10
86.618
 20
386.851
 11
86.8271
 21
386.488
  0
LINE
  8
0
 10
86.8271
 20
386.488
 11
86.9563
 21
386.091
  0
LINE
  8
0
 10
86.9563
 20
386.091
 11
87
 21
385.675
  0
LINE
  8
0
 10
87
 20
385.675
 11
86.9563
 21
385.259
  0
LINE
  8
0
 10
86.9563
 20
385.259
 11
86.8271
 21
384.862
  0
LINE
  8
0
 10
86.8271
 20
384.862
 11
86.618
 21
384.499
  0
LINE
  8
0
 10
86.618
 20
384.499
 11
86.3383
 21
384.189
  0
LINE
  8
0
 10
86.3383
 20
384.189
 11
86
 21
383.943
  0
LINE
  8
0
 10
86
 20
383.943
 11
85.618
 21
383.773
  0
LINE
  8
0
 10
85.618
 20
383.773
 11
85.2091
 21
383.686
  0
LINE
  8
0
 10
85.2091
 20
383.686
 11
84.7909
 21
383.686
  0
LINE
  8
0
 10
97.2909
 20
371.186
 11
96.882
 21
371.273
  0
LINE
  8
0
 10
96.882
 20
371.273
 11
96.5
 21
371.443
  0
LINE
  8
0
 10
96.5
 20
371.443
 11
96.1617
 21
371.689
  0
LINE
  8
0
 10
96.1617
 20
371.689
 11
95.882
 21
371.999
  0
LINE
  8
0
 10
95.882
 20
371.999
 11
95.6729
 21
372.362
  0
LINE
  8
0
 10
95.6729
 20
372.362
 11
95.5437
 21
372.759
  0
LINE
  8
0
 10
95.5437
 20
372.759
 11
95.5
 21
373.175
  0
LINE
  8
0
 10
95.5
 20
373.175
 11
95.5437
 21
373.591
  0
LINE
  8
0
 10
95.5437
 20
373.591
 11
95.6729
 21
373.988
  0
LINE
  8
0
 10
95.6729
 20
373.988
 11
95.882
 21
374.351
  0
LINE
  8
0
 10
95.882
 20
374.351
 11
96.1617
 21
374.661
  0
LINE
  8
0
 10
96.1617
 20
374.661
 11
96.5
 21
374.907
  0
LINE
  8
0
 10
96.5
 20
374.907
 11
96.882
 21
375.077
  0
LINE
  8
0
 10
96.882
 20
375.077
 11
97.2909
 21
375.164
  0
LINE
  8
0
 10
97.2909
 20
375.164
 11
97.7091
 21
375.164
  0
LINE
  8
0
 10
97.7091
 20
375.164
 11
98.118
 21
375.077
  0
LINE
  8
0
 10
98.118
 20
375.077
 11
98.5
 21
374.907
  0
LINE
  8
0
 10
98.5
 20
374.907
 11
98.8383
 21
374.661
  0
LINE
  8
0
 10
98.8383
 20
374.661
 11
99.118
 21
374.351
  0
LINE
  8
0
 10
99.118
 20
374.351
 11
99.3271
 21
373.988
  0
LINE
  8
0
 10
99.3271
 20
373.988
 11
99.4563
 21
373.591
  0
LINE
  8
0
 10
99.4563
 20
373.591
 11
99.5
 21
373.175
  0
LINE
  8
0
 10
99.5
 20
373.175
 11
99.4563
 21
372.759
  0
LINE
  8
0
 10
99.4563
 20
372.759
 11
99.3271
 21
372.362
  0
LINE
  8
0
 10
99.3271
 20
372.362
 11
99.118
 21
371.999
  0
LINE
  8
0
 10
99.118
 20
371.999
 11
98.8383
 21
371.689
  0
LINE
  8
0
 10
98.8383
 20
371.689
 11
98.5
 21
371.443
  0
LINE
  8
0
 10
98.5
 20
371.443
 11
98.118
 21
371.273
  0
LINE
  8
0
 10
98.118
 20
371.273
 11
97.7091
 21
371.186
  0
LINE
  8
0
 10
97.7091
 20
371.186
 11
97.2909
 21
371.186
  0
LINE
  8
0
 10
7.29094
 20
371.186
 11
6.88196
 21
371.273
  0
LINE
  8
0
 10
6.88196
 20
371.273
 11
6.49998
 21
371.443
  0
LINE
  8
0
 10
6.49998
 20
371.443
 11
6.16173
 21
371.689
  0
LINE
  8
0
 10
6.16173
 20
371.689
 11
5.88196
 21
371.999
  0
LINE
  8
0
 10
5.88196
 20
371.999
 11
5.6729
 21
372.362
  0
LINE
  8
0
 10
5.6729
 20
372.362
 11
5.5437
 21
372.759
  0
LINE
  8
0
 10
5.5437
 20
372.759
 11
5.5
 21
373.175
  0
LINE
  8
0
 10
5.5
 20
373.175
 11
5.5437
 21
373.591
  0
LINE
  8
0
 10
5.5437
 20
373.591
 11
5.6729
 21
373.988
  0
LINE
  8
0
 10
5.6729
 20
373.988
 11
5.88196
 21
374.351
  0
LINE
  8
0
 10
5.88196
 20
374.351
 11
6.16173
 21
374.661
  0
LINE
  8
0
 10
6.16173
 20
374.661
 11
6.5
 21
374.907
  0
LINE
  8
0
 10
6.5
 20
374.907
 11
6.88196
 21
375.077
  0
LINE
  8
0
 10
6.88196
 20
375.077
 11
7.29094
 21
375.164
  0
LINE
  8
0
 10
7.29094
 20
375.164
 11
7.70905
 21
375.164
  0
LINE
  8
0
 10
7.70905
 20
375.164
 11
8.11803
 21
375.077
  0
LINE
  8
0
 10
8.11803
 20
375.077
 11
8.5
 21
374.907
  0
LINE
  8
0
 10
8.5
 20
374.907
 11
8.83826
 21
374.661
  0
LINE
  8
0
 10
8.83826
 20
374.661
 11
9.11803
 21
374.351
  0
LINE
  8
0
 10
9.11803
 20
374.351
 11
9.32709
 21
373.988
  0
LINE
  8
0
 10
9.32709
 20
373.988
 11
9.45628
 21
373.591
  0
LINE
  8
0
 10
9.45628
 20
373.591
 11
9.5
 21
373.175
  0
LINE
  8
0
 10
9.5
 20
373.175
 11
9.45628
 21
372.759
  0
LINE
  8
0
 10
9.45628
 20
372.759
 11
9.32709
 21
372.362
  0
LINE
  8
0
 10
9.32709
 20
372.362
 11
9.11803
 21
371.999
  0
LINE
  8
0
 10
9.11803
 20
371.999
 11
8.83826
 21
371.689
  0
LINE
  8
0
 10
8.83826
 20
371.689
 11
8.5
 21
371.443
  0
LINE
  8
0
 10
8.5
 20
371.443
 11
8.11803
 21
371.273
  0
LINE
  8
0
 10
8.11803
 20
371.273
 11
7.70905
 21
371.186
  0
LINE
  8
0
 10
7.70905
 20
371.186
 11
7.29094
 21
371.186
  0
LINE
  8
0
 10
97.2909
 20
351.186
 11
96.882
 21
351.273
  0
LINE
  8
0
 10
96.882
 20
351.273
 11
96.5
 21
351.443
  0
LINE
  8
0
 10
96.5
 20
351.443
 11
96.1617
 21
351.689
  0
LINE
  8
0
 10
96.1617
 20
351.689
 11
95.882
 21
351.999
  0
LINE
  8
0
 10
95.882
 20
351.999
 11
95.6729
 21
352.362
  0
LINE
  8
0
 10
95.6729
 20
352.362
 11
95.5437
 21
352.759
  0
LINE
  8
0
 10
95.5437
 20
352.759
 11
95.5
 21
353.175
  0
LINE
  8
0
 10
95.5
 20
353.175
 11
95.5437
 21
353.591
  0
LINE
  8
0
 10
95.5437
 20
353.591
 11
95.6729
 21
353.988
  0
LINE
  8
0
 10
95.6729
 20
353.988
 11
95.882
 21
354.351
  0
LINE
  8
0
 10
95.882
 20
354.351
 11
96.1617
 21
354.661
  0
LINE
  8
0
 10
96.1617
 20
354.661
 11
96.5
 21
354.907
  0
LINE
  8
0
 10
96.5
 20
354.907
 11
96.882
 21
355.077
  0
LINE
  8
0
 10
96.882
 20
355.077
 11
97.2909
 21
355.164
  0
LINE
  8
0
 10
97.2909
 20
355.164
 11
97.7091
 21
355.164
  0
LINE
  8
0
 10
97.7091
 20
355.164
 11
98.118
 21
355.077
  0
LINE
  8
0
 10
98.118
 20
355.077
 11
98.5
 21
354.907
  0
LINE
  8
0
 10
98.5
 20
354.907
 11
98.8383
 21
354.661
  0
LINE
  8
0
 10
98.8383
 20
354.661
 11
99.118
 21
354.351
  0
LINE
  8
0
 10
99.118
 20
354.351
 11
99.3271
 21
353.988
  0
LINE
  8
0
 10
99.3271
 20
353.988
 11
99.4563
 21
353.591
  0
LINE
  8
0
 10
99.4563
 20
353.591
 11
99.5
 21
353.175
  0
LINE
  8
0
 10
99.5
 20
353.175
 11
99.4563
 21
352.759
  0
LINE
  8
0
 10
99.4563
 20
352.759
 11
99.3271
 21
352.362
  0
LINE
  8
0
 10
99.3271
 20
352.362
 11
99.118
 21
351.999
  0
LINE
  8
0
 10
99.118
 20
351.999
 11
98.8383
 21
351.689
  0
LINE
  8
0
 10
98.8383
 20
351.689
 11
98.5
 21
351.443
  0
LINE
  8
0
 10
98.5
 20
351.443
 11
98.118
 21
351.273
  0
LINE
  8
0
 10
98.118
 20
351.273
 11
97.7091
 21
351.186
  0
LINE
  8
0
 10
97.7091
 20
351.186
 11
97.2909
 21
351.186
  0
LINE
  8
0
 10
7.29094
 20
351.186
 11
6.88196
 21
351.273
  0
LINE
  8
0
 10
6.88196
 20
351.273
 11
6.49998
 21
351.443
  0
LINE
  8
0
 10
6.49998
 20
351.443
 11
6.16173
 21
351.689
  0
LINE
  8
0
 10
6.16173
 20
351.689
 11
5.88196
 21
351.999
  0
LINE
  8
0
 10
5.88196
 20
351.999
 11
5.6729
 21
352.362
  0
LINE
  8
0
 10
5.6729
 20
352.362
 11
5.5437
 21
352.759
  0
LINE
  8
0
 10
5.5437
 20
352.759
 11
5.5
 21
353.175
  0
LINE
  8
0
 10
5.5
 20
353.175
 11
5.5437
 21
353.591
  0
LINE
  8
0
 10
5.5437
 20
353.591
 11
5.6729
 21
353.988
  0
LINE
  8
0
 10
5.6729
 20
353.988
 11
5.88196
 21
354.351
  0
LINE
  8
0
 10
5.88196
 20
354.351
 11
6.16173
 21
354.661
  0
LINE
  8
0
 10
6.16173
 20
354.661
 11
6.5
 21
354.907
  0
LINE
  8
0
 10
6.5
 20
354.907
 11
6.88196
 21
355.077
  0
LINE
  8
0
 10
6.88196
 20
355.077
 11
7.29094
 21
355.164
  0
LINE
  8
0
 10
7.29094
 20
355.164
 11
7.70905
 21
355.164
  0
LINE
  8
0
 10
7.70905
 20
355.164
 11
8.11803
 21
355.077
  0
LINE
  8
0
 10
8.11803
 20
355.077
 11
8.5
 21
354.907
  0
LINE
  8
0
 10
8.5
 20
354.907
 11
8.83826
 21
354.661
  0
LINE
  8
0
 10
8.83826
 20
354.661
 11
9.11803
 21
354.351
  0
LINE
  8
0
 10
9.11803
 20
354.351
 11
9.32709
 21
353.988
  0
LINE
  8
0
 10
9.32709
 20
353.988
 11
9.45628
 21
353.591
  0
LINE
  8
0
 10
9.45628
 20
353.591
 11
9.5
 21
353.175
  0
LINE
  8
0
 10
9.5
 20
353.175
 11
9.45628
 21
352.759
  0
LINE
  8
0
 10
9.45628
 20
352.759
 11
9.32709
 21
352.362
  0
LINE
  8
0
 10
9.32709
 20
352.362
 11
9.11803
 21
351.999
  0
LINE
  8
0
 10
9.11803
 20
351.999
 11
8.83826
 21
351.689
  0
LINE
  8
0
 10
8.83826
 20
351.689
 11
8.5
 21
351.443
  0
LINE
  8
0
 10
8.5
 20
351.443
 11
8.11803
 21
351.273
  0
LINE
  8
0
 10
8.11803
 20
351.273
 11
7.70905
 21
351.186
  0
LINE
  8
0
 10
7.70905
 20
351.186
 11
7.29094
 21
351.186
  0
LINE
  8
0
 10
19.7909
 20
338.686
 11
19.382
 21
338.773
  0
LINE
  8
0
 10
19.382
 20
338.773
 11
19
 21
338.943
  0
LINE
  8
0
 10
19
 20
338.943
 11
18.6617
 21
339.189
  0
LINE
  8
0
 10
18.6617
 20
339.189
 11
18.382
 21
339.499
  0
LINE
  8
0
 10
18.382
 20
339.499
 11
18.1729
 21
339.862
  0
LINE
  8
0
 10
18.1729
 20
339.862
 11
18.0437
 21
340.259
  0
LINE
  8
0
 10
18.0437
 20
340.259
 11
18
 21
340.675
  0
LINE
  8
0
 10
18
 20
340.675
 11
18.0437
 21
341.091
  0
LINE
  8
0
 10
18.0437
 20
341.091
 11
18.1729
 21
341.488
  0
LINE
  8
0
 10
18.1729
 20
341.488
 11
18.382
 21
341.851
  0
LINE
  8
0
 10
18.382
 20
341.851
 11
18.6617
 21
342.161
  0
LINE
  8
0
 10
18.6617
 20
342.161
 11
19
 21
342.407
  0
LINE
  8
0
 10
19
 20
342.407
 11
19.382
 21
342.577
  0
LINE
  8
0
 10
19.382
 20
342.577
 11
19.7909
 21
342.664
  0
LINE
  8
0
 10
19.7909
 20
342.664
 11
20.209
 21
342.664
  0
LINE
  8
0
 10
20.209
 20
342.664
 11
20.618
 21
342.577
  0
LINE
  8
0
 10
20.618
 20
342.577
 11
21
 21
342.407
  0
LINE
  8
0
 10
21
 20
342.407
 11
21.3383
 21
342.161
  0
LINE
  8
0
 10
21.3383
 20
342.161
 11
21.618
 21
341.851
  0
LINE
  8
0
 10
21.618
 20
341.851
 11
21.8271
 21
341.488
  0
LINE
  8
0
 10
21.8271
 20
341.488
 11
21.9563
 21
341.091
  0
LINE
  8
0
 10
21.9563
 20
341.091
 11
22
 21
340.675
  0
LINE
  8
0
 10
22
 20
340.675
 11
21.9563
 21
340.259
  0
LINE
  8
0
 10
21.9563
 20
340.259
 11
21.8271
 21
339.862
  0
LINE
  8
0
 10
21.8271
 20
339.862
 11
21.618
 21
339.499
  0
LINE
  8
0
 10
21.618
 20
339.499
 11
21.3383
 21
339.189
  0
LINE
  8
0
 10
21.3383
 20
339.189
 11
21
 21
338.943
  0
LINE
  8
0
 10
21
 20
338.943
 11
20.618
 21
338.773
  0
LINE
  8
0
 10
20.618
 20
338.773
 11
20.209
 21
338.686
  0
LINE
  8
0
 10
20.209
 20
338.686
 11
19.7909
 21
338.686
  0
LINE
  8
0
 10
84.7909
 20
338.686
 11
84.382
 21
338.773
  0
LINE
  8
0
 10
84.382
 20
338.773
 11
84
 21
338.943
  0
LINE
  8
0
 10
84
 20
338.943
 11
83.6617
 21
339.189
  0
LINE
  8
0
 10
83.6617
 20
339.189
 11
83.382
 21
339.499
  0
LINE
  8
0
 10
83.382
 20
339.499
 11
83.1729
 21
339.862
  0
LINE
  8
0
 10
83.1729
 20
339.862
 11
83.0437
 21
340.259
  0
LINE
  8
0
 10
83.0437
 20
340.259
 11
83
 21
340.675
  0
LINE
  8
0
 10
83
 20
340.675
 11
83.0437
 21
341.091
  0
LINE
  8
0
 10
83.0437
 20
341.091
 11
83.1729
 21
341.488
  0
LINE
  8
0
 10
83.1729
 20
341.488
 11
83.382
 21
341.851
  0
LINE
  8
0
 10
83.382
 20
341.851
 11
83.6617
 21
342.161
  0
LINE
  8
0
 10
83.6617
 20
342.161
 11
84
 21
342.407
  0
LINE
  8
0
 10
84
 20
342.407
 11
84.382
 21
342.577
  0
LINE
  8
0
 10
84.382
 20
342.577
 11
84.7909
 21
342.664
  0
LINE
  8
0
 10
84.7909
 20
342.664
 11
85.2091
 21
342.664
  0
LINE
  8
0
 10
85.2091
 20
342.664
 11
85.618
 21
342.577
  0
LINE
  8
0
 10
85.618
 20
342.577
 11
86
 21
342.407
  0
LINE
  8
0
 10
86
 20
342.407
 11
86.3383
 21
342.161
  0
LINE
  8
0
 10
86.3383
 20
342.161
 11
86.618
 21
341.851
  0
LINE
  8
0
 10
86.618
 20
341.851
 11
86.8271
 21
341.488
  0
LINE
  8
0
 10
86.8271
 20
341.488
 11
86.9563
 21
341.091
  0
LINE
  8
0
 10
86.9563
 20
341.091
 11
87
 21
340.675
  0
LINE
  8
0
 10
87
 20
340.675
 11
86.9563
 21
340.259
  0
LINE
  8
0
 10
86.9563
 20
340.259
 11
86.8271
 21
339.862
  0
LINE
  8
0
 10
86.8271
 20
339.862
 11
86.618
 21
339.499
  0
LINE
  8
0
 10
86.618
 20
339.499
 11
86.3383
 21
339.189
  0
LINE
  8
0
 10
86.3383
 20
339.189
 11
86
 21
338.943
  0
LINE
  8
0
 10
86
 20
338.943
 11
85.618
 21
338.773
  0
LINE
  8
0
 10
85.618
 20
338.773
 11
85.2091
 21
338.686
  0
LINE
  8
0
 10
85.2091
 20
338.686
 11
84.7909
 21
338.686
  0
LINE
  8
0
 10
280
 20
328.175
 11
0
 21
328.175
  0
LINE
  8
0
 10
0
 20
328.175
 11
0
 21
243.175
  0
LINE
  8
0
 10
0
 20
243.175
 11
280
 21
243.175
  0
LINE
  8
0
 10
280
 20
243.175
 11
280
 21
328.175
  0
LINE
  8
0
 10
303.175
 20
238.175
 11
0
 21
238.175
  0
LINE
  8
0
 10
0
 20
238.175
 11
0
 21
178.175
  0
LINE
  8
0
 10
0
 20
178.175
 11
303.175
 21
178.175
  0
LINE
  8
0
 10
303.175
 20
178.175
 11
303.175
 21
238.175
  0
LINE
  8
0
 10
281.378
 20
228.686
 11
280.969
 21
228.773
  0
LINE
  8
0
 10
280.969
 20
228.773
 11
280.587
 21
228.943
  0
LINE
  8
0
 10
280.587
 20
228.943
 11
280.249
 21
229.189
  0
LINE
  8
0
 10
280.249
 20
229.189
 11
279.969
 21
229.499
  0
LINE
  8
0
 10
279.969
 20
229.499
 11
279.76
 21
229.862
  0
LINE
  8
0
 10
279.76
 20
229.862
 11
279.631
 21
230.259
  0
LINE
  8
0
 10
279.631
 20
230.259
 11
279.587
 21
230.675
  0
LINE
  8
0
 10
279.587
 20
230.675
 11
279.631
 21
231.091
  0
LINE
  8
0
 10
279.631
 20
231.091
 11
279.76
 21
231.488
  0
LINE
  8
0
 10
279.76
 20
231.488
 11
279.969
 21
231.851
  0
LINE
  8
0
 10
279.969
 20
231.851
 11
280.249
 21
232.161
  0
LINE
  8
0
 10
280.249
 20
232.161
 11
280.587
 21
232.407
  0
LINE
  8
0
 10
280.587
 20
232.407
 11
280.969
 21
232.577
  0
LINE
  8
0
 10
280.969
 20
232.577
 11
281.378
 21
232.664
  0
LINE
  8
0
 10
281.378
 20
232.664
 11
281.797
 21
232.664
  0
LINE
  8
0
 10
281.797
 20
232.664
 11
282.206
 21
232.577
  0
LINE
  8
0
 10
282.206
 20
232.577
 11
282.587
 21
232.407
  0
LINE
  8
0
 10
282.587
 20
232.407
 11
282.926
 21
232.161
  0
LINE
  8
0
 10
282.926
 20
232.161
 11
283.206
 21
231.851
  0
LINE
  8
0
 10
283.206
 20
231.851
 11
283.415
 21
231.488
  0
LINE
  8
0
 10
283.415
 20
231.488
 11
283.544
 21
231.091
  0
LINE
  8
0
 10
283.544
 20
231.091
 11
283.587
 21
230.675
  0
LINE
  8
0
 10
283.587
 20
230.675
 11
283.544
 21
230.259
  0
LINE
  8
0
 10
283.544
 20
230.259
 11
283.415
 21
229.862
  0
LINE
  8
0
 10
283.415
 20
229.862
 11
283.206
 21
229.499
  0
LINE
  8
0
 10
283.206
 20
229.499
 11
282.926
 21
229.189
  0
LINE
  8
0
 10
282.926
 20
229.189
 11
282.587
 21
228.943
  0
LINE
  8
0
 10
282.587
 20
228.943
 11
282.206
 21
228.773
  0
LINE
  8
0
 10
282.206
 20
228.773
 11
281.797
 21
228.686
  0
LINE
  8
0
 10
281.797
 20
228.686
 11
281.378
 21
228.686
  0
LINE
  8
0
 10
21.3784
 20
228.686
 11
20.9695
 21
228.773
  0
LINE
  8
0
 10
20.9695
 20
228.773
 11
20.5875
 21
228.943
  0
LINE
  8
0
 10
20.5875
 20
228.943
 11
20.2492
 21
229.189
  0
LINE
  8
0
 10
20.2492
 20
229.189
 11
19.9695
 21
229.499
  0
LINE
  8
0
 10
19.9695
 20
229.499
 11
19.7604
 21
229.862
  0
LINE
  8
0
 10
19.7604
 20
229.862
 11
19.6312
 21
230.259
  0
LINE
  8
0
 10
19.6312
 20
230.259
 11
19.5875
 21
230.675
  0
LINE
  8
0
 10
19.5875
 20
230.675
 11
19.6312
 21
231.091
  0
LINE
  8
0
 10
19.6312
 20
231.091
 11
19.7604
 21
231.488
  0
LINE
  8
0
 10
19.7604
 20
231.488
 11
19.9695
 21
231.851
  0
LINE
  8
0
 10
19.9695
 20
231.851
 11
20.2492
 21
232.161
  0
LINE
  8
0
 10
20.2492
 20
232.161
 11
20.5875
 21
232.407
  0
LINE
  8
0
 10
20.5875
 20
232.407
 11
20.9695
 21
232.577
  0
LINE
  8
0
 10
20.9695
 20
232.577
 11
21.3784
 21
232.664
  0
LINE
  8
0
 10
21.3784
 20
232.664
 11
21.7966
 21
232.664
  0
LINE
  8
0
 10
21.7966
 20
232.664
 11
22.2055
 21
232.577
  0
LINE
  8
0
 10
22.2055
 20
232.577
 11
22.5875
 21
232.407
  0
LINE
  8
0
 10
22.5875
 20
232.407
 11
22.9258
 21
232.161
  0
LINE
  8
0
 10
22.9258
 20
232.161
 11
23.2055
 21
231.851
  0
LINE
  8
0
 10
23.2055
 20
231.851
 11
23.4146
 21
231.488
  0
LINE
  8
0
 10
23.4146
 20
231.488
 11
23.5438
 21
231.091
  0
LINE
  8
0
 10
23.5438
 20
231.091
 11
23.5875
 21
230.675
  0
LINE
  8
0
 10
23.5875
 20
230.675
 11
23.5438
 21
230.259
  0
LINE
  8
0
 10
23.5438
 20
230.259
 11
23.4146
 21
229.862
  0
LINE
  8
0
 10
23.4146
 20
229.862
 11
23.2055
 21
229.499
  0
LINE
  8
0
 10
23.2055
 20
229.499
 11
22.9258
 21
229.189
  0
LINE
  8
0
 10
22.9258
 20
229.189
 11
22.5875
 21
228.943
  0
LINE
  8
0
 10
22.5875
 20
228.943
 11
22.2055
 21
228.773
  0
LINE
  8
0
 10
22.2055
 20
228.773
 11
21.7966
 21
228.686
  0
LINE
  8
0
 10
21.7966
 20
228.686
 11
21.3784
 21
228.686
  0
LINE
  8
0
 10
8.87843
 20
216.186
 11
8.46945
 21
216.273
  0
LINE
  8
0
 10
8.46945
 20
216.273
 11
8.08749
 21
216.443
  0
LINE
  8
0
 10
8.08749
 20
216.443
 11
7.74924
 21
216.689
  0
LINE
  8
0
 10
7.74924
 20
216.689
 11
7.46945
 21
216.999
  0
LINE
  8
0
 10
7.46945
 20
216.999
 11
7.26041
 21
217.362
  0
LINE
  8
0
 10
7.26041
 20
217.362
 11
7.1312
 21
217.759
  0
LINE
  8
0
 10
7.1312
 20
217.759
 11
7.08749
 21
218.175
  0
LINE
  8
0
 10
7.08749
 20
218.175
 11
7.1312
 21
218.591
  0
LINE
  8
0
 10
7.1312
 20
218.591
 11
7.26041
 21
218.988
  0
LINE
  8
0
 10
7.26041
 20
218.988
 11
7.46945
 21
219.351
  0
LINE
  8
0
 10
7.46945
 20
219.351
 11
7.74924
 21
219.661
  0
LINE
  8
0
 10
7.74924
 20
219.661
 11
8.08749
 21
219.907
  0
LINE
  8
0
 10
8.08749
 20
219.907
 11
8.46945
 21
220.077
  0
LINE
  8
0
 10
8.46945
 20
220.077
 11
8.87843
 21
220.164
  0
LINE
  8
0
 10
8.87843
 20
220.164
 11
9.29655
 21
220.164
  0
LINE
  8
0
 10
9.29655
 20
220.164
 11
9.70552
 21
220.077
  0
LINE
  8
0
 10
9.70552
 20
220.077
 11
10.0875
 21
219.907
  0
LINE
  8
0
 10
10.0875
 20
219.907
 11
10.4258
 21
219.661
  0
LINE
  8
0
 10
10.4258
 20
219.661
 11
10.7055
 21
219.351
  0
LINE
  8
0
 10
10.7055
 20
219.351
 11
10.9146
 21
218.988
  0
LINE
  8
0
 10
10.9146
 20
218.988
 11
11.0438
 21
218.591
  0
LINE
  8
0
 10
11.0438
 20
218.591
 11
11.0875
 21
218.175
  0
LINE
  8
0
 10
11.0875
 20
218.175
 11
11.0438
 21
217.759
  0
LINE
  8
0
 10
11.0438
 20
217.759
 11
10.9146
 21
217.362
  0
LINE
  8
0
 10
10.9146
 20
217.362
 11
10.7055
 21
216.999
  0
LINE
  8
0
 10
10.7055
 20
216.999
 11
10.4258
 21
216.689
  0
LINE
  8
0
 10
10.4258
 20
216.689
 11
10.0875
 21
216.443
  0
LINE
  8
0
 10
10.0875
 20
216.443
 11
9.70552
 21
216.273
  0
LINE
  8
0
 10
9.70552
 20
216.273
 11
9.29655
 21
216.186
  0
LINE
  8
0
 10
9.29655
 20
216.186
 11
8.87843
 21
216.186
  0
LINE
  8
0
 10
293.878
 20
216.186
 11
293.469
 21
216.273
  0
LINE
  8
0
 10
293.469
 20
216.273
 11
293.087
 21
216.443
  0
LINE
  8
0
 10
293.087
 20
216.443
 11
292.749
 21
216.689
  0
LINE
  8
0
 10
292.749
 20
216.689
 11
292.469
 21
216.999
  0
LINE
  8
0
 10
292.469
 20
216.999
 11
292.26
 21
217.362
  0
LINE
  8
0
 10
292.26
 20
217.362
 11
292.131
 21
217.759
  0
LINE
  8
0
 10
292.131
 20
217.759
 11
292.087
 21
218.175
  0
LINE
  8
0
 10
292.087
 20
218.175
 11
292.131
 21
218.591
  0
LINE
  8
0
 10
292.131
 20
218.591
 11
292.26
 21
218.988
  0
LINE
  8
0
 10
292.26
 20
218.988
 11
292.469
 21
219.351
  0
LINE
  8
0
 10
292.469
 20
219.351
 11
292.749
 21
219.661
  0
LINE
  8
0
 10
292.749
 20
219.661
 11
293.087
 21
219.907
  0
LINE
  8
0
 10
293.087
 20
219.907
 11
293.469
 21
220.077
  0
LINE
  8
0
 10
293.469
 20
220.077
 11
293.878
 21
220.164
  0
LINE
  8
0
 10
293.878
 20
220.164
 11
294.297
 21
220.164
  0
LINE
  8
0
 10
294.297
 20
220.164
 11
294.706
 21
220.077
  0
LINE
  8
0
 10
294.706
 20
220.077
 11
295.087
 21
219.907
  0
LINE
  8
0
 10
295.087
 20
219.907
 11
295.426
 21
219.661
  0
LINE
  8
0
 10
295.426
 20
219.661
 11
295.706
 21
219.351
  0
LINE
  8
0
 10
295.706
 20
219.351
 11
295.915
 21
218.988
  0
LINE
  8
0
 10
295.915
 20
218.988
 11
296.044
 21
218.591
  0
LINE
  8
0
 10
296.044
 20
218.591
 11
296.087
 21
218.175
  0
LINE
  8
0
 10
296.087
 20
218.175
 11
296.044
 21
217.759
  0
LINE
  8
0
 10
296.044
 20
217.759
 11
295.915
 21
217.362
  0
LINE
  8
0
 10
295.915
 20
217.362
 11
295.706
 21
216.999
  0
LINE
  8
0
 10
295.706
 20
216.999
 11
295.426
 21
216.689
  0
LINE
  8
0
 10
295.426
 20
216.689
 11
295.087
 21
216.443
  0
LINE
  8
0
 10
295.087
 20
216.443
 11
294.706
 21
216.273
  0
LINE
  8
0
 10
294.706
 20
216.273
 11
294.297
 21
216.186
  0
LINE
  8
0
 10
294.297
 20
216.186
 11
293.878
 21
216.186
  0
LINE
  8
0
 10
293.878
 20
196.186
 11
293.469
 21
196.273
  0
LINE
  8
0
 10
293.469
 20
196.273
 11
293.087
 21
196.443
  0
LINE
  8
0
 10
293.087
 20
196.443
 11
292.749
 21
196.689
  0
LINE
  8
0
 10
292.749
 20
196.689
 11
292.469
 21
196.999
  0
LINE
  8
0
 10
292.469
 20
196.999
 11
292.26
 21
197.362
  0
LINE
  8
0
 10
292.26
 20
197.362
 11
292.131
 21
197.759
  0
LINE
  8
0
 10
292.131
 20
197.759
 11
292.087
 21
198.175
  0
LINE
  8
0
 10
292.087
 20
198.175
 11
292.131
 21
198.591
  0
LINE
  8
0
 10
292.131
 20
198.591
 11
292.26
 21
198.988
  0
LINE
  8
0
 10
292.26
 20
198.988
 11
292.469
 21
199.351
  0
LINE
  8
0
 10
292.469
 20
199.351
 11
292.749
 21
199.661
  0
LINE
  8
0
 10
292.749
 20
199.661
 11
293.087
 21
199.907
  0
LINE
  8
0
 10
293.087
 20
199.907
 11
293.469
 21
200.077
  0
LINE
  8
0
 10
293.469
 20
200.077
 11
293.878
 21
200.164
  0
LINE
  8
0
 10
293.878
 20
200.164
 11
294.297
 21
200.164
  0
LINE
  8
0
 10
294.297
 20
200.164
 11
294.706
 21
200.077
  0
LINE
  8
0
 10
294.706
 20
200.077
 11
295.087
 21
199.907
  0
LINE
  8
0
 10
295.087
 20
199.907
 11
295.426
 21
199.661
  0
LINE
  8
0
 10
295.426
 20
199.661
 11
295.706
 21
199.351
  0
LINE
  8
0
 10
295.706
 20
199.351
 11
295.915
 21
198.988
  0
LINE
  8
0
 10
295.915
 20
198.988
 11
296.044
 21
198.591
  0
LINE
  8
0
 10
296.044
 20
198.591
 11
296.087
 21
198.175
  0
LINE
  8
0
 10
296.087
 20
198.175
 11
296.044
 21
197.759
  0
LINE
  8
0
 10
296.044
 20
197.759
 11
295.915
 21
197.362
  0
LINE
  8
0
 10
295.915
 20
197.362
 11
295.706
 21
196.999
  0
LINE
  8
0
 10
295.706
 20
196.999
 11
295.426
 21
196.689
  0
LINE
  8
0
 10
295.426
 20
196.689
 11
295.087
 21
196.443
  0
LINE
  8
0
 10
295.087
 20
196.443
 11
294.706
 21
196.273
  0
LINE
  8
0
 10
294.706
 20
196.273
 11
294.297
 21
196.186
  0
LINE
  8
0
 10
294.297
 20
196.186
 11
293.878
 21
196.186
  0
LINE
  8
0
 10
8.87843
 20
196.186
 11
8.46945
 21
196.273
  0
LINE
  8
0
 10
8.46945
 20
196.273
 11
8.08749
 21
196.443
  0
LINE
  8
0
 10
8.08749
 20
196.443
 11
7.74924
 21
196.689
  0
LINE
  8
0
 10
7.74924
 20
196.689
 11
7.46945
 21
196.999
  0
LINE
  8
0
 10
7.46945
 20
196.999
 11
7.26041
 21
197.362
  0
LINE
  8
0
 10
7.26041
 20
197.362
 11
7.1312
 21
197.759
  0
LINE
  8
0
 10
7.1312
 20
197.759
 11
7.08749
 21
198.175
  0
LINE
  8
0
 10
7.08749
 20
198.175
 11
7.1312
 21
198.591
  0
LINE
  8
0
 10
7.1312
 20
198.591
 11
7.26041
 21
198.988
  0
LINE
  8
0
 10
7.26041
 20
198.988
 11
7.46945
 21
199.351
  0
LINE
  8
0
 10
7.46945
 20
199.351
 11
7.74924
 21
199.661
  0
LINE
  8
0
 10
7.74924
 20
199.661
 11
8.08749
 21
199.907
  0
LINE
  8
0
 10
8.08749
 20
199.907
 11
8.46945
 21
200.077
  0
LINE
  8
0
 10
8.46945
 20
200.077
 11
8.87843
 21
200.164
  0
LINE
  8
0
 10
8.87843
 20
200.164
 11
9.29655
 21
200.164
  0
LINE
  8
0
 10
9.29655
 20
200.164
 11
9.70552
 21
200.077
  0
LINE
  8
0
 10
9.70552
 20
200.077
 11
10.0875
 21
199.907
  0
LINE
  8
0
 10
10.0875
 20
199.907
 11
10.4258
 21
199.661
  0
LINE
  8
0
 10
10.4258
 20
199.661
 11
10.7055
 21
199.351
  0
LINE
  8
0
 10
10.7055
 20
199.351
 11
10.9146
 21
198.988
  0
LINE
  8
0
 10
10.9146
 20
198.988
 11
11.0438
 21
198.591
  0
LINE
  8
0
 10
11.0438
 20
198.591
 11
11.0875
 21
198.175
  0
LINE
  8
0
 10
11.0875
 20
198.175
 11
11.0438
 21
197.759
  0
LINE
  8
0
 10
11.0438
 20
197.759
 11
10.9146
 21
197.362
  0
LINE
  8
0
 10
10.9146
 20
197.362
 11
10.7055
 21
196.999
  0
LINE
  8
0
 10
10.7055
 20
196.999
 11
10.4258
 21
196.689
  0
LINE
  8
0
 10
10.4258
 20
196.689
 11
10.0875
 21
196.443
  0
LINE
  8
0
 10
10.0875
 20
196.443
 11
9.70552
 21
196.273
  0
LINE
  8
0
 10
9.70552
 20
196.273
 11
9.29655
 21
196.186
  0
LINE
  8
0
 10
9.29655
 20
196.186
 11
8.87843
 21
196.186
  0
LINE
  8
0
 10
281.378
 20
183.686
 11
280.969
 21
183.773
  0
LINE
  8
0
 10
280.969
 20
183.773
 11
280.587
 21
183.943
  0
LINE
  8
0
 10
280.587
 20
183.943
 11
280.249
 21
184.189
  0
LINE
  8
0
 10
280.249
 20
184.189
 11
279.969
 21
184.499
  0
LINE
  8
0
 10
279.969
 20
184.499
 11
279.76
 21
184.862
  0
LINE
  8
0
 10
279.76
 20
184.862
 11
279.631
 21
185.259
  0
LINE
  8
0
 10
279.631
 20
185.259
 11
279.587
 21
185.675
  0
LINE
  8
0
 10
279.587
 20
185.675
 11
279.631
 21
186.091
  0
LINE
  8
0
 10
279.631
 20
186.091
 11
279.76
 21
186.488
  0
LINE
  8
0
 10
279.76
 20
186.488
 11
279.969
 21
186.851
  0
LINE
  8
0
 10
279.969
 20
186.851
 11
280.249
 21
187.161
  0
LINE
  8
0
 10
280.249
 20
187.161
 11
280.587
 21
187.407
  0
LINE
  8
0
 10
280.587
 20
187.407
 11
280.969
 21
187.577
  0
LINE
  8
0
 10
280.969
 20
187.577
 11
281.378
 21
187.664
  0
LINE
  8
0
 10
281.378
 20
187.664
 11
281.797
 21
187.664
  0
LINE
  8
0
 10
281.797
 20
187.664
 11
282.206
 21
187.577
  0
LINE
  8
0
 10
282.206
 20
187.577
 11
282.587
 21
187.407
  0
LINE
  8
0
 10
282.587
 20
187.407
 11
282.926
 21
187.161
  0
LINE
  8
0
 10
282.926
 20
187.161
 11
283.206
 21
186.851
  0
LINE
  8
0
 10
283.206
 20
186.851
 11
283.415
 21
186.488
  0
LINE
  8
0
 10
283.415
 20
186.488
 11
283.544
 21
186.091
  0
LINE
  8
0
 10
283.544
 20
186.091
 11
283.587
 21
185.675
  0
LINE
  8
0
 10
283.587
 20
185.675
 11
283.544
 21
185.259
  0
LINE
  8
0
 10
283.544
 20
185.259
 11
283.415
 21
184.862
  0
LINE
  8
0
 10
283.415
 20
184.862
 11
283.206
 21
184.499
  0
LINE
  8
0
 10
283.206
 20
184.499
 11
282.926
 21
184.189
  0
LINE
  8
0
 10
282.926
 20
184.189
 11
282.587
 21
183.943
  0
LINE
  8
0
 10
282.587
 20
183.943
 11
282.206
 21
183.773
  0
LINE
  8
0
 10
282.206
 20
183.773
 11
281.797
 21
183.686
  0
LINE
  8
0
 10
281.797
 20
183.686
 11
281.378
 21
183.686
  0
LINE
  8
0
 10
21.3784
 20
183.686
 11
20.9695
 21
183.773
  0
LINE
  8
0
 10
20.9695
 20
183.773
 11
20.5875
 21
183.943
  0
LINE
  8
0
 10
20.5875
 20
183.943
 11
20.2492
 21
184.189
  0
LINE
  8
0
 10
20.2492
 20
184.189
 11
19.9695
 21
184.499
  0
LINE
  8
0
 10
19.9695
 20
184.499
 11
19.7604
 21
184.862
  0
LINE
  8
0
 10
19.7604
 20
184.862
 11
19.6312
 21
185.259
  0
LINE
  8
0
 10
19.6312
 20
185.259
 11
19.5875
 21
185.675
  0
LINE
  8
0
 10
19.5875
 20
185.675
 11
19.6312
 21
186.091
  0
LINE
  8
0
 10
19.6312
 20
186.091
 11
19.7604
 21
186.488
  0
LINE
  8
0
 10
19.7604
 20
186.488
 11
19.9695
 21
186.851
  0
LINE
  8
0
 10
19.9695
 20
186.851
 11
20.2492
 21
187.161
  0
LINE
  8
0
 10
20.2492
 20
187.161
 11
20.5875
 21
187.407
  0
LINE
  8
0
 10
20.5875
 20
187.407
 11
20.9695
 21
187.577
  0
LINE
  8
0
 10
20.9695
 20
187.577
 11
21.3784
 21
187.664
  0
LINE
  8
0
 10
21.3784
 20
187.664
 11
21.7966
 21
187.664
  0
LINE
  8
0
 10
21.7966
 20
187.664
 11
22.2055
 21
187.577
  0
LINE
  8
0
 10
22.2055
 20
187.577
 11
22.5875
 21
187.407
  0
LINE
  8
0
 10
22.5875
 20
187.407
 11
22.9258
 21
187.161
  0
LINE
  8
0
 10
22.9258
 20
187.161
 11
23.2055
 21
186.851
  0
LINE
  8
0
 10
23.2055
 20
186.851
 11
23.4146
 21
186.488
  0
LINE
  8
0
 10
23.4146
 20
186.488
 11
23.5438
 21
186.091
  0
LINE
  8
0
 10
23.5438
 20
186.091
 11
23.5875
 21
185.675
  0
LINE
  8
0
 10
23.5875
 20
185.675
 11
23.5438
 21
185.259
  0
LINE
  8
0
 10
23.5438
 20
185.259
 11
23.4146
 21
184.862
  0
LINE
  8
0
 10
23.4146
 20
184.862
 11
23.2055
 21
184.499
  0
LINE
  8
0
 10
23.2055
 20
184.499
 11
22.9258
 21
184.189
  0
LINE
  8
0
 10
22.9258
 20
184.189
 11
22.5875
 21
183.943
  0
LINE
  8
0
 10
22.5875
 20
183.943
 11
22.2055
 21
183.773
  0
LINE
  8
0
 10
22.2055
 20
183.773
 11
21.7966
 21
183.686
  0
LINE
  8
0
 10
21.7966
 20
183.686
 11
21.3784
 21
183.686
  0
LINE
  8
0
 10
303.175
 20
173.175
 11
0
 21
173.175
  0
LINE
  8
0
 10
0
 20
173.175
 11
0
 21
113.175
  0
LINE
  8
0
 10
0
 20
113.175
 11
303.175
 21
113.175
  0
LINE
  8
0
 10
303.175
 20
113.175
 11
303.175
 21
173.175
  0
LINE
  8
0
 10
281.378
 20
163.686
 11
280.969
 21
163.773
  0
LINE
  8
0
 10
280.969
 20
163.773
 11
280.587
 21
163.943
  0
LINE
  8
0
 10
280.587
 20
163.943
 11
280.249
 21
164.189
  0
LINE
  8
0
 10
280.249
 20
164.189
 11
279.969
 21
164.499
  0
LINE
  8
0
 10
279.969
 20
164.499
 11
279.76
 21
164.862
  0
LINE
  8
0
 10
279.76
 20
164.862
 11
279.631
 21
165.259
  0
LINE
  8
0
 10
279.631
 20
165.259
 11
279.587
 21
165.675
  0
LINE
  8
0
 10
279.587
 20
165.675
 11
279.631
 21
166.091
  0
LINE
  8
0
 10
279.631
 20
166.091
 11
279.76
 21
166.488
  0
LINE
  8
0
 10
279.76
 20
166.488
 11
279.969
 21
166.851
  0
LINE
  8
0
 10
279.969
 20
166.851
 11
280.249
 21
167.161
  0
LINE
  8
0
 10
280.249
 20
167.161
 11
280.587
 21
167.407
  0
LINE
  8
0
 10
280.587
 20
167.407
 11
280.969
 21
167.577
  0
LINE
  8
0
 10
280.969
 20
167.577
 11
281.378
 21
167.664
  0
LINE
  8
0
 10
281.378
 20
167.664
 11
281.797
 21
167.664
  0
LINE
  8
0
 10
281.797
 20
167.664
 11
282.206
 21
167.577
  0
LINE
  8
0
 10
282.206
 20
167.577
 11
282.587
 21
167.407
  0
LINE
  8
0
 10
282.587
 20
167.407
 11
282.926
 21
167.161
  0
LINE
  8
0
 10
282.926
 20
167.161
 11
283.206
 21
166.851
  0
LINE
  8
0
 10
283.206
 20
166.851
 11
283.415
 21
166.488
  0
LINE
  8
0
 10
283.415
 20
166.488
 11
283.544
 21
166.091
  0
LINE
  8
0
 10
283.544
 20
166.091
 11
283.587
 21
165.675
  0
LINE
  8
0
 10
283.587
 20
165.675
 11
283.544
 21
165.259
  0
LINE
  8
0
 10
283.544
 20
165.259
 11
283.415
 21
164.862
  0
LINE
  8
0
 10
283.415
 20
164.862
 11
283.206
 21
164.499
  0
LINE
  8
0
 10
283.206
 20
164.499
 11
282.926
 21
164.189
  0
LINE
  8
0
 10
282.926
 20
164.189
 11
282.587
 21
163.943
  0
LINE
  8
0
 10
282.587
 20
163.943
 11
282.206
 21
163.773
  0
LINE
  8
0
 10
282.206
 20
163.773
 11
281.797
 21
163.686
  0
LINE
  8
0
 10
281.797
 20
163.686
 11
281.378
 21
163.686
  0
LINE
  8
0
 10
21.3784
 20
163.686
 11
20.9695
 21
163.773
  0
LINE
  8
0
 10
20.9695
 20
163.773
 11
20.5875
 21
163.943
  0
LINE
  8
0
 10
20.5875
 20
163.943
 11
20.2492
 21
164.189
  0
LINE
  8
0
 10
20.2492
 20
164.189
 11
19.9695
 21
164.499
  0
LINE
  8
0
 10
19.9695
 20
164.499
 11
19.7604
 21
164.862
  0
LINE
  8
0
 10
19.7604
 20
164.862
 11
19.6312
 21
165.259
  0
LINE
  8
0
 10
19.6312
 20
165.259
 11
19.5875
 21
165.675
  0
LINE
  8
0
 10
19.5875
 20
165.675
 11
19.6312
 21
166.091
  0
LINE
  8
0
 10
19.6312
 20
166.091
 11
19.7604
 21
166.488
  0
LINE
  8
0
 10
19.7604
 20
166.488
 11
19.9695
 21
166.851
  0
LINE
  8
0
 10
19.9695
 20
166.851
 11
20.2492
 21
167.161
  0
LINE
  8
0
 10
20.2492
 20
167.161
 11
20.5875
 21
167.407
  0
LINE
  8
0
 10
20.5875
 20
167.407
 11
20.9695
 21
167.577
  0
LINE
  8
0
 10
20.9695
 20
167.577
 11
21.3784
 21
167.664
  0
LINE
  8
0
 10
21.3784
 20
167.664
 11
21.7966
 21
167.664
  0
LINE
  8
0
 10
21.7966
 20
167.664
 11
22.2055
 21
167.577
  0
LINE
  8
0
 10
22.2055
 20
167.577
 11
22.5875
 21
167.407
  0
LINE
  8
0
 10
22.5875
 20
167.407
 11
22.9258
 21
167.161
  0
LINE
  8
0
 10
22.9258
 20
167.161
 11
23.2055
 21
166.851
  0
LINE
  8
0
 10
23.2055
 20
166.851
 11
23.4146
 21
166.488
  0
LINE
  8
0
 10
23.4146
 20
166.488
 11
23.5438
 21
166.091
  0
LINE
  8
0
 10
23.5438
 20
166.091
 11
23.5875
 21
165.675
  0
LINE
  8
0
 10
23.5875
 20
165.675
 11
23.5438
 21
165.259
  0
LINE
  8
0
 10
23.5438
 20
165.259
 11
23.4146
 21
164.862
  0
LINE
  8
0
 10
23.4146
 20
164.862
 11
23.2055
 21
164.499
  0
LINE
  8
0
 10
23.2055
 20
164.499
 11
22.9258
 21
164.189
  0
LINE
  8
0
 10
22.9258
 20
164.189
 11
22.5875
 21
163.943
  0
LINE
  8
0
 10
22.5875
 20
163.943
 11
22.2055
 21
163.773
  0
LINE
  8
0
 10
22.2055
 20
163.773
 11
21.7966
 21
163.686
  0
LINE
  8
0
 10
21.7966
 20
163.686
 11
21.3784
 21
163.686
  0
LINE
  8
0
 10
8.87843
 20
151.186
 11
8.46945
 21
151.273
  0
LINE
  8
0
 10
8.46945
 20
151.273
 11
8.08749
 21
151.443
  0
LINE
  8
0
 10
8.08749
 20
151.443
 11
7.74924
 21
151.689
  0
LINE
  8
0
 10
7.74924
 20
151.689
 11
7.46945
 21
151.999
  0
LINE
  8
0
 10
7.46945
 20
151.999
 11
7.26041
 21
152.362
  0
LINE
  8
0
 10
7.26041
 20
152.362
 11
7.1312
 21
152.759
  0
LINE
  8
0
 10
7.1312
 20
152.759
 11
7.08749
 21
153.175
  0
LINE
  8
0
 10
7.08749
 20
153.175
 11
7.1312
 21
153.591
  0
LINE
  8
0
 10
7.1312
 20
153.591
 11
7.26041
 21
153.988
  0
LINE
  8
0
 10
7.26041
 20
153.988
 11
7.46945
 21
154.351
  0
LINE
  8
0
 10
7.46945
 20
154.351
 11
7.74924
 21
154.661
  0
LINE
  8
0
 10
7.74924
 20
154.661
 11
8.08749
 21
154.907
  0
LINE
  8
0
 10
8.08749
 20
154.907
 11
8.46945
 21
155.077
  0
LINE
  8
0
 10
8.46945
 20
155.077
 11
8.87843
 21
155.164
  0
LINE
  8
0
 10
8.87843
 20
155.164
 11
9.29655
 21
155.164
  0
LINE
  8
0
 10
9.29655
 20
155.164
 11
9.70552
 21
155.077
  0
LINE
  8
0
 10
9.70552
 20
155.077
 11
10.0875
 21
154.907
  0
LINE
  8
0
 10
10.0875
 20
154.907
 11
10.4258
 21
154.661
  0
LINE
  8
0
 10
10.4258
 20
154.661
 11
10.7055
 21
154.351
  0
LINE
  8
0
 10
10.7055
 20
154.351
 11
10.9146
 21
153.988
  0
LINE
  8
0
 10
10.9146
 20
153.988
 11
11.0438
 21
153.591
  0
LINE
  8
0
 10
11.0438
 20
153.591
 11
11.0875
 21
153.175
  0
LINE
  8
0
 10
11.0875
 20
153.175
 11
11.0438
 21
152.759
  0
LINE
  8
0
 10
11.0438
 20
152.759
 11
10.9146
 21
152.362
  0
LINE
  8
0
 10
10.9146
 20
152.362
 11
10.7055
 21
151.999
  0
LINE
  8
0
 10
10.7055
 20
151.999
 11
10.4258
 21
151.689
  0
LINE
  8
0
 10
10.4258
 20
151.689
 11
10.0875
 21
151.443
  0
LINE
  8
0
 10
10.0875
 20
151.443
 11
9.70552
 21
151.273
  0
LINE
  8
0
 10
9.70552
 20
151.273
 11
9.29655
 21
151.186
  0
LINE
  8
0
 10
9.29655
 20
151.186
 11
8.87843
 21
151.186
  0
LINE
  8
0
 10
293.878
 20
151.186
 11
293.469
 21
151.273
  0
LINE
  8
0
 10
293.469
 20
151.273
 11
293.087
 21
151.443
  0
LINE
  8
0
 10
293.087
 20
151.443
 11
292.749
 21
151.689
  0
LINE
  8
0
 10
292.749
 20
151.689
 11
292.469
 21
151.999
  0
LINE
  8
0
 10
292.469
 20
151.999
 11
292.26
 21
152.362
  0
LINE
  8
0
 10
292.26
 20
152.362
 11
292.131
 21
152.759
  0
LINE
  8
0
 10
292.131
 20
152.759
 11
292.087
 21
153.175
  0
LINE
  8
0
 10
292.087
 20
153.175
 11
292.131
 21
153.591
  0
LINE
  8
0
 10
292.131
 20
153.591
 11
292.26
 21
153.988
  0
LINE
  8
0
 10
292.26
 20
153.988
 11
292.469
 21
154.351
  0
LINE
  8
0
 10
292.469
 20
154.351
 11
292.749
 21
154.661
  0
LINE
  8
0
 10
292.749
 20
154.661
 11
293.087
 21
154.907
  0
LINE
  8
0
 10
293.087
 20
154.907
 11
293.469
 21
155.077
  0
LINE
  8
0
 10
293.469
 20
155.077
 11
293.878
 21
155.164
  0
LINE
  8
0
 10
293.878
 20
155.164
 11
294.297
 21
155.164
  0
LINE
  8
0
 10
294.297
 20
155.164
 11
294.706
 21
155.077
  0
LINE
  8
0
 10
294.706
 20
155.077
 11
295.087
 21
154.907
  0
LINE
  8
0
 10
295.087
 20
154.907
 11
295.426
 21
154.661
  0
LINE
  8
0
 10
295.426
 20
154.661
 11
295.706
 21
154.351
  0
LINE
  8
0
 10
295.706
 20
154.351
 11
295.915
 21
153.988
  0
LINE
  8
0
 10
295.915
 20
153.988
 11
296.044
 21
153.591
  0
LINE
  8
0
 10
296.044
 20
153.591
 11
296.087
 21
153.175
  0
LINE
  8
0
 10
296.087
 20
153.175
 11
296.044
 21
152.759
  0
LINE
  8
0
 10
296.044
 20
152.759
 11
295.915
 21
152.362
  0
LINE
  8
0
 10
295.915
 20
152.362
 11
295.706
 21
151.999
  0
LINE
  8
0
 10
295.706
 20
151.999
 11
295.426
 21
151.689
  0
LINE
  8
0
 10
295.426
 20
151.689
 11
295.087
 21
151.443
  0
LINE
  8
0
 10
295.087
 20
151.443
 11
294.706
 21
151.273
  0
LINE
  8
0
 10
294.706
 20
151.273
 11
294.297
 21
151.186
  0
LINE
  8
0
 10
294.297
 20
151.186
 11
293.878
 21
151.186
  0
LINE
  8
0
 10
293.878
 20
131.186
 11
293.469
 21
131.273
  0
LINE
  8
0
 10
293.469
 20
131.273
 11
293.087
 21
131.443
  0
LINE
  8
0
 10
293.087
 20
131.443
 11
292.749
 21
131.689
  0
LINE
  8
0
 10
292.749
 20
131.689
 11
292.469
 21
131.999
  0
LINE
  8
0
 10
292.469
 20
131.999
 11
292.26
 21
132.362
  0
LINE
  8
0
 10
292.26
 20
132.362
 11
292.131
 21
132.759
  0
LINE
  8
0
 10
292.131
 20
132.759
 11
292.087
 21
133.175
  0
LINE
  8
0
 10
292.087
 20
133.175
 11
292.131
 21
133.591
  0
LINE
  8
0
 10
292.131
 20
133.591
 11
292.26
 21
133.988
  0
LINE
  8
0
 10
292.26
 20
133.988
 11
292.469
 21
134.351
  0
LINE
  8
0
 10
292.469
 20
134.351
 11
292.749
 21
134.661
  0
LINE
  8
0
 10
292.749
 20
134.661
 11
293.087
 21
134.907
  0
LINE
  8
0
 10
293.087
 20
134.907
 11
293.469
 21
135.077
  0
LINE
  8
0
 10
293.469
 20
135.077
 11
293.878
 21
135.164
  0
LINE
  8
0
 10
293.878
 20
135.164
 11
294.297
 21
135.164
  0
LINE
  8
0
 10
294.297
 20
135.164
 11
294.706
 21
135.077
  0
LINE
  8
0
 10
294.706
 20
135.077
 11
295.087
 21
134.907
  0
LINE
  8
0
 10
295.087
 20
134.907
 11
295.426
 21
134.661
  0
LINE
  8
0
 10
295.426
 20
134.661
 11
295.706
 21
134.351
  0
LINE
  8
0
 10
295.706
 20
134.351
 11
295.915
 21
133.988
  0
LINE
  8
0
 10
295.915
 20
133.988
 11
296.044
 21
133.591
  0
LINE
  8
0
 10
296.044
 20
133.591
 11
296.087
 21
133.175
  0
LINE
  8
0
 10
296.087
 20
133.175
 11
296.044
 21
132.759
  0
LINE
  8
0
 10
296.044
 20
132.759
 11
295.915
 21
132.362
  0
LINE
  8
0
 10
295.915
 20
132.362
 11
295.706
 21
131.999
  0
LINE
  8
0
 10
295.706
 20
131.999
 11
295.426
 21
131.689
  0
LINE
  8
0
 10
295.426
 20
131.689
 11
295.087
 21
131.443
  0
LINE
  8
0
 10
295.087
 20
131.443
 11
294.706
 21
131.273
  0
LINE
  8
0
 10
294.706
 20
131.273
 11
294.297
 21
131.186
  0
LINE
  8
0
 10
294.297
 20
131.186
 11
293.878
 21
131.186
  0
LINE
  8
0
 10
8.87843
 20
131.186
 11
8.46945
 21
131.273
  0
LINE
  8
0
 10
8.46945
 20
131.273
 11
8.08749
 21
131.443
  0
LINE
  8
0
 10
8.08749
 20
131.443
 11
7.74924
 21
131.689
  0
LINE
  8
0
 10
7.74924
 20
131.689
 11
7.46945
 21
131.999
  0
LINE
  8
0
 10
7.46945
 20
131.999
 11
7.26041
 21
132.362
  0
LINE
  8
0
 10
7.26041
 20
132.362
 11
7.1312
 21
132.759
  0
LINE
  8
0
 10
7.1312
 20
132.759
 11
7.08749
 21
133.175
  0
LINE
  8
0
 10
7.08749
 20
133.175
 11
7.1312
 21
133.591
  0
LINE
  8
0
 10
7.1312
 20
133.591
 11
7.26041
 21
133.988
  0
LINE
  8
0
 10
7.26041
 20
133.988
 11
7.46945
 21
134.351
  0
LINE
  8
0
 10
7.46945
 20
134.351
 11
7.74924
 21
134.661
  0
LINE
  8
0
 10
7.74924
 20
134.661
 11
8.08749
 21
134.907
  0
LINE
  8
0
 10
8.08749
 20
134.907
 11
8.46945
 21
135.077
  0
LINE
  8
0
 10
8.46945
 20
135.077
 11
8.87843
 21
135.164
  0
LINE
  8
0
 10
8.87843
 20
135.164
 11
9.29655
 21
135.164
  0
LINE
  8
0
 10
9.29655
 20
135.164
 11
9.70552
 21
135.077
  0
LINE
  8
0
 10
9.70552
 20
135.077
 11
10.0875
 21
134.907
  0
LINE
  8
0
 10
10.0875
 20
134.907
 11
10.4258
 21
134.661
  0
LINE
  8
0
 10
10.4258
 20
134.661
 11
10.7055
 21
134.351
  0
LINE
  8
0
 10
10.7055
 20
134.351
 11
10.9146
 21
133.988
  0
LINE
  8
0
 10
10.9146
 20
133.988
 11
11.0438
 21
133.591
  0
LINE
  8
0
 10
11.0438
 20
133.591
 11
11.0875
 21
133.175
  0
LINE
  8
0
 10
11.0875
 20
133.175
 11
11.0438
 21
132.759
  0
LINE
  8
0
 10
11.0438
 20
132.759
 11
10.9146
 21
132.362
  0
LINE
  8
0
 10
10.9146
 20
132.362
 11
10.7055
 21
131.999
  0
LINE
  8
0
 10
10.7055
 20
131.999
 11
10.4258
 21
131.689
  0
LINE
  8
0
 10
10.4258
 20
131.689
 11
10.0875
 21
131.443
  0
LINE
  8
0
 10
10.0875
 20
131.443
 11
9.70552
 21
131.273
  0
LINE
  8
0
 10
9.70552
 20
131.273
 11
9.29655
 21
131.186
  0
LINE
  8
0
 10
9.29655
 20
131.186
 11
8.87843
 21
131.186
  0
LINE
  8
0
 10
21.3784
 20
118.686
 11
20.9695
 21
118.773
  0
LINE
  8
0
 10
20.9695
 20
118.773
 11
20.5875
 21
118.943
  0
LINE
  8
0
 10
20.5875
 20
118.943
 11
20.2492
 21
119.189
  0
LINE
  8
0
 10
20.2492
 20
119.189
 11
19.9695
 21
119.499
  0
LINE
  8
0
 10
19.9695
 20
119.499
 11
19.7604
 21
119.862
  0
LINE
  8
0
 10
19.7604
 20
119.862
 11
19.6312
 21
120.259
  0
LINE
  8
0
 10
19.6312
 20
120.259
 11
19.5875
 21
120.675
  0
LINE
  8
0
 10
19.5875
 20
120.675
 11
19.6312
 21
121.091
  0
LINE
  8
0
 10
19.6312
 20
121.091
 11
19.7604
 21
121.488
  0
LINE
  8
0
 10
19.7604
 20
121.488
 11
19.9695
 21
121.851
  0
LINE
  8
0
 10
19.9695
 20
121.851
 11
20.2492
 21
122.161
  0
LINE
  8
0
 10
20.2492
 20
122.161
 11
20.5875
 21
122.407
  0
LINE
  8
0
 10
20.5875
 20
122.407
 11
20.9695
 21
122.577
  0
LINE
  8
0
 10
20.9695
 20
122.577
 11
21.3784
 21
122.664
  0
LINE
  8
0
 10
21.3784
 20
122.664
 11
21.7966
 21
122.664
  0
LINE
  8
0
 10
21.7966
 20
122.664
 11
22.2055
 21
122.577
  0
LINE
  8
0
 10
22.2055
 20
122.577
 11
22.5875
 21
122.407
  0
LINE
  8
0
 10
22.5875
 20
122.407
 11
22.9258
 21
122.161
  0
LINE
  8
0
 10
22.9258
 20
122.161
 11
23.2055
 21
121.851
  0
LINE
  8
0
 10
23.2055
 20
121.851
 11
23.4146
 21
121.488
  0
LINE
  8
0
 10
23.4146
 20
121.488
 11
23.5438
 21
121.091
  0
LINE
  8
0
 10
23.5438
 20
121.091
 11
23.5875
 21
120.675
  0
LINE
  8
0
 10
23.5875
 20
120.675
 11
23.5438
 21
120.259
  0
LINE
  8
0
 10
23.5438
 20
120.259
 11
23.4146
 21
119.862
  0
LINE
  8
0
 10
23.4146
 20
119.862
 11
23.2055
 21
119.499
  0
LINE
  8
0
 10
23.2055
 20
119.499
 11
22.9258
 21
119.189
  0
LINE
  8
0
 10
22.9258
 20
119.189
 11
22.5875
 21
118.943
  0
LINE
  8
0
 10
22.5875
 20
118.943
 11
22.2055
 21
118.773
  0
LINE
  8
0
 10
22.2055
 20
118.773
 11
21.7966
 21
118.686
  0
LINE
  8
0
 10
21.7966
 20
118.686
 11
21.3784
 21
118.686
  0
LINE
  8
0
 10
281.378
 20
118.686
 11
280.969
 21
118.773
  0
LINE
  8
0
 10
280.969
 20
118.773
 11
280.587
 21
118.943
  0
LINE
  8
0
 10
280.587
 20
118.943
 11
280.249
 21
119.189
  0
LINE
  8
0
 10
280.249
 20
119.189
 11
279.969
 21
119.499
  0
LINE
  8
0
 10
279.969
 20
119.499
 11
279.76
 21
119.862
  0
LINE
  8
0
 10
279.76
 20
119.862
 11
279.631
 21
120.259
  0
LINE
  8
0
 10
279.631
 20
120.259
 11
279.587
 21
120.675
  0
LINE
  8
0
 10
279.587
 20
120.675
 11
279.631
 21
121.091
  0
LINE
  8
0
 10
279.631
 20
121.091
 11
279.76
 21
121.488
  0
LINE
  8
0
 10
279.76
 20
121.488
 11
279.969
 21
121.851
  0
LINE
  8
0
 10
279.969
 20
121.851
 11
280.249
 21
122.161
  0
LINE
  8
0
 10
280.249
 20
122.161
 11
280.587
 21
122.407
  0
LINE
  8
0
 10
280.587
 20
122.407
 11
280.969
 21
122.577
  0
LINE
  8
0
 10
280.969
 20
122.577
 11
281.378
 21
122.664
  0
LINE
  8
0
 10
281.378
 20
122.664
 11
281.797
 21
122.664
  0
LINE
  8
0
 10
281.797
 20
122.664
 11
282.206
 21
122.577
  0
LINE
  8
0
 10
282.206
 20
122.577
 11
282.587
 21
122.407
  0
LINE
  8
0
 10
282.587
 20
122.407
 11
282.926
 21
122.161
  0
LINE
  8
0
 10
282.926
 20
122.161
 11
283.206
 21
121.851
  0
LINE
  8
0
 10
283.206
 20
121.851
 11
283.415
 21
121.488
  0
LINE
  8
0
 10
283.415
 20
121.488
 11
283.544
 21
121.091
  0
LINE
  8
0
 10
283.544
 20
121.091
 11
283.587
 21
120.675
  0
LINE
  8
0
 10
283.587
 20
120.675
 11
283.544
 21
120.259
  0
LINE
  8
0
 10
283.544
 20
120.259
 11
283.415
 21
119.862
  0
LINE
  8
0
 10
283.415
 20
119.862
 11
283.206
 21
119.499
  0
LINE
  8
0
 10
283.206
 20
119.499
 11
282.926
 21
119.189
  0
LINE
  8
0
 10
282.926
 20
119.189
 11
282.587
 21
118.943
  0
LINE
  8
0
 10
282.587
 20
118.943
 11
282.206
 21
118.773
  0
LINE
  8
0
 10
282.206
 20
118.773
 11
281.797
 21
118.686
  0
LINE
  8
0
 10
281.797
 20
118.686
 11
281.378
 21
118.686
  0
LINE
  8
0
 10
303.175
 20
108.175
 11
0
 21
108.175
  0
LINE
  8
0
 10
0
 20
108.175
 11
0
 21
0
  0
LINE
  8
0
 10
0
 20
0
 11
303.175
 21
0
  0
LINE
  8
0
 10
303.175
 20
0
 11
303.175
 21
108.175
  0
LINE
  8
0
 10
281.378
 20
97.0984
 11
280.969
 21
97.1854
  0
LINE
  8
0
 10
280.969
 20
97.1854
 11
280.587
 21
97.3554
  0
LINE
  8
0
 10
280.587
 20
97.3554
 11
280.249
 21
97.6012
  0
LINE
  8
0
 10
280.249
 20
97.6012
 11
279.969
 21
97.9119
  0
LINE
  8
0
 10
279.969
 20
97.9119
 11
279.76
 21
98.274
  0
LINE
  8
0
 10
279.76
 20
98.274
 11
279.631
 21
98.6717
  0
LINE
  8
0
 10
279.631
 20
98.6717
 11
279.587
 21
99.0875
  0
LINE
  8
0
 10
279.587
 20
99.0875
 11
279.631
 21
99.5033
  0
LINE
  8
0
 10
279.631
 20
99.5033
 11
279.76
 21
99.901
  0
LINE
  8
0
 10
279.76
 20
99.901
 11
279.969
 21
100.263
  0
LINE
  8
0
 10
279.969
 20
100.263
 11
280.249
 21
100.574
  0
LINE
  8
0
 10
280.249
 20
100.574
 11
280.587
 21
100.82
  0
LINE
  8
0
 10
280.587
 20
100.82
 11
280.969
 21
100.99
  0
LINE
  8
0
 10
280.969
 20
100.99
 11
281.378
 21
101.077
  0
LINE
  8
0
 10
281.378
 20
101.077
 11
281.797
 21
101.077
  0
LINE
  8
0
 10
281.797
 20
101.077
 11
282.206
 21
100.99
  0
LINE
  8
0
 10
282.206
 20
100.99
 11
282.587
 21
100.82
  0
LINE
  8
0
 10
282.587
 20
100.82
 11
282.926
 21
100.574
  0
LINE
  8
0
 10
282.926
 20
100.574
 11
283.206
 21
100.263
  0
LINE
  8
0
 10
283.206
 20
100.263
 11
283.415
 21
99.901
  0
LINE
  8
0
 10
283.415
 20
99.901
 11
283.544
 21
99.5033
  0
LINE
  8
0
 10
283.544
 20
99.5033
 11
283.587
 21
99.0875
  0
LINE
  8
0
 10
283.587
 20
99.0875
 11
283.544
 21
98.6717
  0
LINE
  8
0
 10
283.544
 20
98.6717
 11
283.415
 21
98.274
  0
LINE
  8
0
 10
283.415
 20
98.274
 11
283.206
 21
97.9119
  0
LINE
  8
0
 10
283.206
 20
97.9119
 11
282.926
 21
97.6012
  0
LINE
  8
0
 10
282.926
 20
97.6012
 11
282.587
 21
97.3554
  0
LINE
  8
0
 10
282.587
 20
97.3554
 11
282.206
 21
97.1854
  0
LINE
  8
0
 10
282.206
 20
97.1854
 11
281.797
 21
97.0984
  0
LINE
  8
0
 10
281.797
 20
97.0984
 11
281.378
 21
97.0984
  0
LINE
  8
0
 10
21.3784
 20
97.0984
 11
20.9695
 21
97.1854
  0
LINE
  8
0
 10
20.9695
 20
97.1854
 11
20.5875
 21
97.3554
  0
LINE
  8
0
 10
20.5875
 20
97.3554
 11
20.2492
 21
97.6012
  0
LINE
  8
0
 10
20.2492
 20
97.6012
 11
19.9695
 21
97.9119
  0
LINE
  8
0
 10
19.9695
 20
97.9119
 11
19.7604
 21
98.274
  0
LINE
  8
0
 10
19.7604
 20
98.274
 11
19.6312
 21
98.6717
  0
LINE
  8
0
 10
19.6312
 20
98.6717
 11
19.5875
 21
99.0875
  0
LINE
  8
0
 10
19.5875
 20
99.0875
 11
19.6312
 21
99.5033
  0
LINE
  8
0
 10
19.6312
 20
99.5033
 11
19.7604
 21
99.901
  0
LINE
  8
0
 10
19.7604
 20
99.901
 11
19.9695
 21
100.263
  0
LINE
  8
0
 10
19.9695
 20
100.263
 11
20.2492
 21
100.574
  0
LINE
  8
0
 10
20.2492
 20
100.574
 11
20.5875
 21
100.82
  0
LINE
  8
0
 10
20.5875
 20
100.82
 11
20.9695
 21
100.99
  0
LINE
  8
0
 10
20.9695
 20
100.99
 11
21.3784
 21
101.077
  0
LINE
  8
0
 10
21.3784
 20
101.077
 11
21.7966
 21
101.077
  0
LINE
  8
0
 10
21.7966
 20
101.077
 11
22.2055
 21
100.99
  0
LINE
  8
0
 10
22.2055
 20
100.99
 11
22.5875
 21
100.82
  0
LINE
  8
0
 10
22.5875
 20
100.82
 11
22.9258
 21
100.574
  0
LINE
  8
0
 10
22.9258
 20
100.574
 11
23.2055
 21
100.263
  0
LINE
  8
0
 10
23.2055
 20
100.263
 11
23.4146
 21
99.901
  0
LINE
  8
0
 10
23.4146
 20
99.901
 11
23.5438
 21
99.5033
  0
LINE
  8
0
 10
23.5438
 20
99.5033
 11
23.5875
 21
99.0875
  0
LINE
  8
0
 10
23.5875
 20
99.0875
 11
23.5438
 21
98.6717
  0
LINE
  8
0
 10
23.5438
 20
98.6717
 11
23.4146
 21
98.274
  0
LINE
  8
0
 10
23.4146
 20
98.274
 11
23.2055
 21
97.9119
  0
LINE
  8
0
 10
23.2055
 20
97.9119
 11
22.9258
 21
97.6012
  0
LINE
  8
0
 10
22.9258
 20
97.6012
 11
22.5875
 21
97.3554
  0
LINE
  8
0
 10
22.5875
 20
97.3554
 11
22.2055
 21
97.1854
  0
LINE
  8
0
 10
22.2055
 20
97.1854
 11
21.7966
 21
97.0984
  0
LINE
  8
0
 10
21.7966
 20
97.0984
 11
21.3784
 21
97.0984
  0
LINE
  8
0
 10
8.87843
 20
84.5984
 11
8.46945
 21
84.6854
  0
LINE
  8
0
 10
8.46945
 20
84.6854
 11
8.08749
 21
84.8554
  0
LINE
  8
0
 10
8.08749
 20
84.8554
 11
7.74924
 21
85.1012
  0
LINE
  8
0
 10
7.74924
 20
85.1012
 11
7.46945
 21
85.4119
  0
LINE
  8
0
 10
7.46945
 20
85.4119
 11
7.26041
 21
85.774
  0
LINE
  8
0
 10
7.26041
 20
85.774
 11
7.1312
 21
86.1717
  0
LINE
  8
0
 10
7.1312
 20
86.1717
 11
7.08749
 21
86.5875
  0
LINE
  8
0
 10
7.08749
 20
86.5875
 11
7.1312
 21
87.0033
  0
LINE
  8
0
 10
7.1312
 20
87.0033
 11
7.26041
 21
87.401
  0
LINE
  8
0
 10
7.26041
 20
87.401
 11
7.46945
 21
87.7631
  0
LINE
  8
0
 10
7.46945
 20
87.7631
 11
7.74924
 21
88.0738
  0
LINE
  8
0
 10
7.74924
 20
88.0738
 11
8.08749
 21
88.3195
  0
LINE
  8
0
 10
8.08749
 20
88.3195
 11
8.46945
 21
88.4896
  0
LINE
  8
0
 10
8.46945
 20
88.4896
 11
8.87843
 21
88.5765
  0
LINE
  8
0
 10
8.87843
 20
88.5765
 11
9.29655
 21
88.5765
  0
LINE
  8
0
 10
9.29655
 20
88.5765
 11
9.70552
 21
88.4896
  0
LINE
  8
0
 10
9.70552
 20
88.4896
 11
10.0875
 21
88.3195
  0
LINE
  8
0
 10
10.0875
 20
88.3195
 11
10.4258
 21
88.0738
  0
LINE
  8
0
 10
10.4258
 20
88.0738
 11
10.7055
 21
87.7631
  0
LINE
  8
0
 10
10.7055
 20
87.7631
 11
10.9146
 21
87.401
  0
LINE
  8
0
 10
10.9146
 20
87.401
 11
11.0438
 21
87.0033
  0
LINE
  8
0
 10
11.0438
 20
87.0033
 11
11.0875
 21
86.5875
  0
LINE
  8
0
 10
11.0875
 20
86.5875
 11
11.0438
 21
86.1717
  0
LINE
  8
0
 10
11.0438
 20
86.1717
 11
10.9146
 21
85.774
  0
LINE
  8
0
 10
10.9146
 20
85.774
 11
10.7055
 21
85.4119
  0
LINE
  8
0
 10
10.7055
 20
85.4119
 11
10.4258
 21
85.1012
  0
LINE
  8
0
 10
10.4258
 20
85.1012
 11
10.0875
 21
84.8554
  0
LINE
  8
0
 10
10.0875
 20
84.8554
 11
9.70552
 21
84.6854
  0
LINE
  8
0
 10
9.70552
 20
84.6854
 11
9.29655
 21
84.5984
  0
LINE
  8
0
 10
9.29655
 20
84.5984
 11
8.87843
 21
84.5984
  0
LINE
  8
0
 10
293.878
 20
84.5984
 11
293.469
 21
84.6854
  0
LINE
  8
0
 10
293.469
 20
84.6854
 11
293.087
 21
84.8554
  0
LINE
  8
0
 10
293.087
 20
84.8554
 11
292.749
 21
85.1012
  0
LINE
  8
0
 10
292.749
 20
85.1012
 11
292.469
 21
85.4119
  0
LINE
  8
0
 10
292.469
 20
85.4119
 11
292.26
 21
85.774
  0
LINE
  8
0
 10
292.26
 20
85.774
 11
292.131
 21
86.1717
  0
LINE
  8
0
 10
292.131
 20
86.1717
 11
292.087
 21
86.5875
  0
LINE
  8
0
 10
292.087
 20
86.5875
 11
292.131
 21
87.0033
  0
LINE
  8
0
 10
292.131
 20
87.0033
 11
292.26
 21
87.401
  0
LINE
  8
0
 10
292.26
 20
87.401
 11
292.469
 21
87.7631
  0
LINE
  8
0
 10
292.469
 20
87.7631
 11
292.749
 21
88.0738
  0
LINE
  8
0
 10
292.749
 20
88.0738
 11
293.087
 21
88.3195
  0
LINE
  8
0
 10
293.087
 20
88.3195
 11
293.469
 21
88.4896
  0
LINE
  8
0
 10
293.469
 20
88.4896
 11
293.878
 21
88.5765
  0
LINE
  8
0
 10
293.878
 20
88.5765
 11
294.297
 21
88.5765
  0
LINE
  8
0
 10
294.297
 20
88.5765
 11
294.706
 21
88.4896
  0
LINE
  8
0
 10
294.706
 20
88.4896
 11
295.087
 21
88.3195
  0
LINE
  8
0
 10
295.087
 20
88.3195
 11
295.426
 21
88.0738
  0
LINE
  8
0
 10
295.426
 20
88.0738
 11
295.706
 21
87.7631
  0
LINE
  8
0
 10
295.706
 20
87.7631
 11
295.915
 21
87.401
  0
LINE
  8
0
 10
295.915
 20
87.401
 11
296.044
 21
87.0033
  0
LINE
  8
0
 10
296.044
 20
87.0033
 11
296.087
 21
86.5875
  0
LINE
  8
0
 10
296.087
 20
86.5875
 11
296.044
 21
86.1717
  0
LINE
  8
0
 10
296.044
 20
86.1717
 11
295.915
 21
85.774
  0
LINE
  8
0
 10
295.915
 20
85.774
 11
295.706
 21
85.4119
  0
LINE
  8
0
 10
295.706
 20
85.4119
 11
295.426
 21
85.1012
  0
LINE
  8
0
 10
295.426
 20
85.1012
 11
295.087
 21
84.8554
  0
LINE
  8
0
 10
295.087
 20
84.8554
 11
294.706
 21
84.6854
  0
LINE
  8
0
 10
294.706
 20
84.6854
 11
294.297
 21
84.5984
  0
LINE
  8
0
 10
294.297
 20
84.5984
 11
293.878
 21
84.5984
  0
LINE
  8
0
 10
293.878
 20
19.5984
 11
293.469
 21
19.6854
  0
LINE
  8
0
 10
293.469
 20
19.6854
 11
293.087
 21
19.8554
  0
LINE
  8
0
 10
293.087
 20
19.8554
 11
292.749
 21
20.1012
  0
LINE
  8
0
 10
292.749
 20
20.1012
 11
292.469
 21
20.4119
  0
LINE
  8
0
 10
292.469
 20
20.4119
 11
292.26
 21
20.774
  0
LINE
  8
0
 10
292.26
 20
20.774
 11
292.131
 21
21.1717
  0
LINE
  8
0
 10
292.131
 20
21.1717
 11
292.087
 21
21.5875
  0
LINE
  8
0
 10
292.087
 20
21.5875
 11
292.131
 21
22.0033
  0
LINE
  8
0
 10
292.131
 20
22.0033
 11
292.26
 21
22.401
  0
LINE
  8
0
 10
292.26
 20
22.401
 11
292.469
 21
22.7631
  0
LINE
  8
0
 10
292.469
 20
22.7631
 11
292.749
 21
23.0738
  0
LINE
  8
0
 10
292.749
 20
23.0738
 11
293.087
 21
23.3195
  0
LINE
  8
0
 10
293.087
 20
23.3195
 11
293.469
 21
23.4896
  0
LINE
  8
0
 10
293.469
 20
23.4896
 11
293.878
 21
23.5765
  0
LINE
  8
0
 10
293.878
 20
23.5765
 11
294.297
 21
23.5765
  0
LINE
  8
0
 10
294.297
 20
23.5765
 11
294.706
 21
23.4896
  0
LINE
  8
0
 10
294.706
 20
23.4896
 11
295.087
 21
23.3195
  0
LINE
  8
0
 10
295.087
 20
23.3195
 11
295.426
 21
23.0738
  0
LINE
  8
0
 10
295.426
 20
23.0738
 11
295.706
 21
22.7631
  0
LINE
  8
0
 10
295.706
 20
22.7631
 11
295.915
 21
22.401
  0
LINE
  8
0
 10
295.915
 20
22.401
 11
296.044
 21
22.0033
  0
LINE
  8
0
 10
296.044
 20
22.0033
 11
296.087
 21
21.5875
  0
LINE
  8
0
 10
296.087
 20
21.5875
 11
296.044
 21
21.1717
  0
LINE
  8
0
 10
296.044
 20
21.1717
 11
295.915
 21
20.774
  0
LINE
  8
0
 10
295.915
 20
20.774
 11
295.706
 21
20.4119
  0
LINE
  8
0
 10
295.706
 20
20.4119
 11
295.426
 21
20.1012
  0
LINE
  8
0
 10
295.426
 20
20.1012
 11
295.087
 21
19.8554
  0
LINE
  8
0
 10
295.087
 20
19.8554
 11
294.706
 21
19.6854
  0
LINE
  8
0
 10
294.706
 20
19.6854
 11
294.297
 21
19.5984
  0
LINE
  8
0
 10
294.297
 20
19.5984
 11
293.878
 21
19.5984
  0
LINE
  8
0
 10
8.87843
 20
19.5984
 11
8.46945
 21
19.6854
  0
LINE
  8
0
 10
8.46945
 20
19.6854
 11
8.08749
 21
19.8554
  0
LINE
  8
0
 10
8.08749
 20
19.8554
 11
7.74924
 21
20.1012
  0
LINE
  8
0
 10
7.74924
 20
20.1012
 11
7.46945
 21
20.4119
  0
LINE
  8
0
 10
7.46945
 20
20.4119
 11
7.26041
 21
20.774
  0
LINE
  8
0
 10
7.26041
 20
20.774
 11
7.1312
 21
21.1717
  0
LINE
  8
0
 10
7.1312
 20
21.1717
 11
7.08749
 21
21.5875
  0
LINE
  8
0
 10
7.08749
 20
21.5875
 11
7.1312
 21
22.0033
  0
LINE
  8
0
 10
7.1312
 20
22.0033
 11
7.26041
 21
22.401
  0
LINE
  8
0
 10
7.26041
 20
22.401
 11
7.46945
 21
22.7631
  0
LINE
  8
0
 10
7.46945
 20
22.7631
 11
7.74924
 21
23.0738
  0
LINE
  8
0
 10
7.74924
 20
23.0738
 11
8.08749
 21
23.3195
  0
LINE
  8
0
 10
8.08749
 20
23.3195
 11
8.46945
 21
23.4896
  0
LINE
  8
0
 10
8.46945
 20
23.4896
 11
8.87843
 21
23.5765
  0
LINE
  8
0
 10
8.87843
 20
23.5765
 11
9.29655
 21
23.5765
  0
LINE
  8
0
 10
9.29655
 20
23.5765
 11
9.70552
 21
23.4896
  0
LINE
  8
0
 10
9.70552
 20
23.4896
 11
10.0875
 21
23.3195
  0
LINE
  8
0
 10
10.0875
 20
23.3195
 11
10.4258
 21
23.0738
  0
LINE
  8
0
 10
10.4258
 20
23.0738
 11
10.7055
 21
22.7631
  0
LINE
  8
0
 10
10.7055
 20
22.7631
 11
10.9146
 21
22.401
  0
LINE
  8
0
 10
10.9146
 20
22.401
 11
11.0438
 21
22.0033
  0
LINE
  8
0
 10
11.0438
 20
22.0033
 11
11.0875
 21
21.5875
  0
LINE
  8
0
 10
11.0875
 20
21.5875
 11
11.0438
 21
21.1717
  0
LINE
  8
0
 10
11.0438
 20
21.1717
 11
10.9146
 21
20.774
  0
LINE
  8
0
 10
10.9146
 20
20.774
 11
10.7055
 21
20.4119
  0
LINE
  8
0
 10
10.7055
 20
20.4119
 11
10.4258
 21
20.1012
  0
LINE
  8
0
 10
10.4258
 20
20.1012
 11
10.0875
 21
19.8554
  0
LINE
  8
0
 10
10.0875
 20
19.8554
 11
9.70552
 21
19.6854
  0
LINE
  8
0
 10
9.70552
 20
19.6854
 11
9.29655
 21
19.5984
  0
LINE
  8
0
 10
9.29655
 20
19.5984
 11
8.87843
 21
19.5984
  0
LINE
  8
0
 10
21.3784
 20
7.09845
 11
20.9695
 21
7.18538
  0
LINE
  8
0
 10
20.9695
 20
7.18538
 11
20.5875
 21
7.35544
  0
LINE
  8
0
 10
20.5875
 20
7.35544
 11
20.2492
 21
7.6012
  0
LINE
  8
0
 10
20.2492
 20
7.6012
 11
19.9695
 21
7.91193
  0
LINE
  8
0
 10
19.9695
 20
7.91193
 11
19.7604
 21
8.27402
  0
LINE
  8
0
 10
19.7604
 20
8.27402
 11
19.6312
 21
8.67166
  0
LINE
  8
0
 10
19.6312
 20
8.67166
 11
19.5875
 21
9.08749
  0
LINE
  8
0
 10
19.5875
 20
9.08749
 11
19.6312
 21
9.50331
  0
LINE
  8
0
 10
19.6312
 20
9.50331
 11
19.7604
 21
9.90097
  0
LINE
  8
0
 10
19.7604
 20
9.90097
 11
19.9695
 21
10.2631
  0
LINE
  8
0
 10
19.9695
 20
10.2631
 11
20.2492
 21
10.5738
  0
LINE
  8
0
 10
20.2492
 20
10.5738
 11
20.5875
 21
10.8195
  0
LINE
  8
0
 10
20.5875
 20
10.8195
 11
20.9695
 21
10.9896
  0
LINE
  8
0
 10
20.9695
 20
10.9896
 11
21.3784
 21
11.0765
  0
LINE
  8
0
 10
21.3784
 20
11.0765
 11
21.7966
 21
11.0765
  0
LINE
  8
0
 10
21.7966
 20
11.0765
 11
22.2055
 21
10.9896
  0
LINE
  8
0
 10
22.2055
 20
10.9896
 11
22.5875
 21
10.8195
  0
LINE
  8
0
 10
22.5875
 20
10.8195
 11
22.9258
 21
10.5738
  0
LINE
  8
0
 10
22.9258
 20
10.5738
 11
23.2055
 21
10.2631
  0
LINE
  8
0
 10
23.2055
 20
10.2631
 11
23.4146
 21
9.90097
  0
LINE
  8
0
 10
23.4146
 20
9.90097
 11
23.5438
 21
9.50331
  0
LINE
  8
0
 10
23.5438
 20
9.50331
 11
23.5875
 21
9.08749
  0
LINE
  8
0
 10
23.5875
 20
9.08749
 11
23.5438
 21
8.67166
  0
LINE
  8
0
 10
23.5438
 20
8.67166
 11
23.4146
 21
8.27402
  0
LINE
  8
0
 10
23.4146
 20
8.27402
 11
23.2055
 21
7.91193
  0
LINE
  8
0
 10
23.2055
 20
7.91193
 11
22.9258
 21
7.6012
  0
LINE
  8
0
 10
22.9258
 20
7.6012
 11
22.5875
 21
7.35544
  0
LINE
  8
0
 10
22.5875
 20
7.35544
 11
22.2055
 21
7.18538
  0
LINE
  8
0
 10
22.2055
 20
7.18538
 11
21.7966
 21
7.09845
  0
LINE
  8
0
 10
21.7966
 20
7.09845
 11
21.3784
 21
7.09845
  0
LINE
  8
0
 10
281.378
 20
7.09845
 11
280.969
 21
7.18538
  0
LINE
  8
0
 10
280.969
 20
7.18538
 11
280.587
 21
7.35544
  0
LINE
  8
0
 10
280.587
 20
7.35544
 11
280.249
 21
7.6012
  0
LINE
  8
0
 10
280.249
 20
7.6012
 11
279.969
 21
7.91193
  0
LINE
  8
0
 10
279.969
 20
7.91193
 11
279.76
 21
8.27402
  0
LINE
  8
0
 10
279.76
 20
8.27402
 11
279.631
 21
8.67166
  0
LINE
  8
0
 10
279.631
 20
8.67166
 11
279.587
 21
9.08749
  0
LINE
  8
0
 10
279.587
 20
9.08749
 11
279.631
 21
9.50331
  0
LINE
  8
0
 10
279.631
 20
9.50331
 11
279.76
 21
9.90097
  0
LINE
  8
0
 10
279.76
 20
9.90097
 11
279.969
 21
10.2631
  0
LINE
  8
0
 10
279.969
 20
10.2631
 11
280.249
 21
10.5738
  0
LINE
  8
0
 10
280.249
 20
10.5738
 11
280.587
 21
10.8195
  0
LINE
  8
0
 10
280.587
 20
10.8195
 11
280.969
 21
10.9896
  0
LINE
  8
0
 10
280.969
 20
10.9896
 11
281.378
 21
11.0765
  0
LINE
  8
0
 10
281.378
 20
11.0765
 11
281.797
 21
11.0765
  0
LINE
  8
0
 10
281.797
 20
11.0765
 11
282.206
 21
10.9896
  0
LINE
  8
0
 10
282.206
 20
10.9896
 11
282.587
 21
10.8195
  0
LINE
  8
0
 10
282.587
 20
10.8195
 11
282.926
 21
10.5738
  0
LINE
  8
0
 10
282.926
 20
10.5738
 11
283.206
 21
10.2631
  0
LINE
  8
0
 10
283.206
 20
10.2631
 11
283.415
 21
9.90097
  0
LINE
  8
0
 10
283.415
 20
9.90097
 11
283.544
 21
9.50331
  0
LINE
  8
0
 10
283.544
 20
9.50331
 11
283.587
 21
9.08749
  0
LINE
  8
0
 10
283.587
 20
9.08749
 11
283.544
 21
8.67166
  0
LINE
  8
0
 10
283.544
 20
8.67166
 11
283.415
 21
8.27402
  0
LINE
  8
0
 10
283.415
 20
8.27402
 11
283.206
 21
7.91193
  0
LINE
  8
0
 10
283.206
 20
7.91193
 11
282.926
 21
7.6012
  0
LINE
  8
0
 10
282.926
 20
7.6012
 11
282.587
 21
7.35544
  0
LINE
  8
0
 10
282.587
 20
7.35544
 11
282.206
 21
7.18538
  0
LINE
  8
0
 10
282.206
 20
7.18538
 11
281.797
 21
7.09845
  0
LINE
  8
0
 10
281.797
 20
7.09845
 11
281.378
 21
7.09845
  0
ENDSEC
  0
SECTION
  2
OBJECTS
  0
DICTIONARY
  0
ENDSEC
  0
EOF
