  0
SECTION
  2
BLOCKS
  0
ENDSEC
  0
SECTION
  2
ENTITIES
  0
LINE
  8
0
 10
303.175
 20
108.175
 11
0
 21
108.175
  0
LINE
  8
0
 10
0
 20
108.175
 11
0
 21
0
  0
LINE
  8
0
 10
0
 20
0
 11
303.175
 21
0
  0
LINE
  8
0
 10
303.175
 20
0
 11
303.175
 21
108.175
  0
LINE
  8
0
 10
281.378
 20
97.0984
 11
280.969
 21
97.1854
  0
LINE
  8
0
 10
280.969
 20
97.1854
 11
280.587
 21
97.3554
  0
LINE
  8
0
 10
280.587
 20
97.3554
 11
280.249
 21
97.6012
  0
LINE
  8
0
 10
280.249
 20
97.6012
 11
279.969
 21
97.9119
  0
LINE
  8
0
 10
279.969
 20
97.9119
 11
279.76
 21
98.274
  0
LINE
  8
0
 10
279.76
 20
98.274
 11
279.631
 21
98.6717
  0
LINE
  8
0
 10
279.631
 20
98.6717
 11
279.587
 21
99.0875
  0
LINE
  8
0
 10
279.587
 20
99.0875
 11
279.631
 21
99.5033
  0
LINE
  8
0
 10
279.631
 20
99.5033
 11
279.76
 21
99.901
  0
LINE
  8
0
 10
279.76
 20
99.901
 11
279.969
 21
100.263
  0
LINE
  8
0
 10
279.969
 20
100.263
 11
280.249
 21
100.574
  0
LINE
  8
0
 10
280.249
 20
100.574
 11
280.587
 21
100.82
  0
LINE
  8
0
 10
280.587
 20
100.82
 11
280.969
 21
100.99
  0
LINE
  8
0
 10
280.969
 20
100.99
 11
281.378
 21
101.077
  0
LINE
  8
0
 10
281.378
 20
101.077
 11
281.797
 21
101.077
  0
LINE
  8
0
 10
281.797
 20
101.077
 11
282.206
 21
100.99
  0
LINE
  8
0
 10
282.206
 20
100.99
 11
282.587
 21
100.82
  0
LINE
  8
0
 10
282.587
 20
100.82
 11
282.926
 21
100.574
  0
LINE
  8
0
 10
282.926
 20
100.574
 11
283.206
 21
100.263
  0
LINE
  8
0
 10
283.206
 20
100.263
 11
283.415
 21
99.901
  0
LINE
  8
0
 10
283.415
 20
99.901
 11
283.544
 21
99.5033
  0
LINE
  8
0
 10
283.544
 20
99.5033
 11
283.587
 21
99.0875
  0
LINE
  8
0
 10
283.587
 20
99.0875
 11
283.544
 21
98.6717
  0
LINE
  8
0
 10
283.544
 20
98.6717
 11
283.415
 21
98.274
  0
LINE
  8
0
 10
283.415
 20
98.274
 11
283.206
 21
97.9119
  0
LINE
  8
0
 10
283.206
 20
97.9119
 11
282.926
 21
97.6012
  0
LINE
  8
0
 10
282.926
 20
97.6012
 11
282.587
 21
97.3554
  0
LINE
  8
0
 10
282.587
 20
97.3554
 11
282.206
 21
97.1854
  0
LINE
  8
0
 10
282.206
 20
97.1854
 11
281.797
 21
97.0984
  0
LINE
  8
0
 10
281.797
 20
97.0984
 11
281.378
 21
97.0984
  0
LINE
  8
0
 10
21.3784
 20
97.0984
 11
20.9695
 21
97.1854
  0
LINE
  8
0
 10
20.9695
 20
97.1854
 11
20.5875
 21
97.3554
  0
LINE
  8
0
 10
20.5875
 20
97.3554
 11
20.2492
 21
97.6012
  0
LINE
  8
0
 10
20.2492
 20
97.6012
 11
19.9695
 21
97.9119
  0
LINE
  8
0
 10
19.9695
 20
97.9119
 11
19.7604
 21
98.274
  0
LINE
  8
0
 10
19.7604
 20
98.274
 11
19.6312
 21
98.6717
  0
LINE
  8
0
 10
19.6312
 20
98.6717
 11
19.5875
 21
99.0875
  0
LINE
  8
0
 10
19.5875
 20
99.0875
 11
19.6312
 21
99.5033
  0
LINE
  8
0
 10
19.6312
 20
99.5033
 11
19.7604
 21
99.901
  0
LINE
  8
0
 10
19.7604
 20
99.901
 11
19.9695
 21
100.263
  0
LINE
  8
0
 10
19.9695
 20
100.263
 11
20.2492
 21
100.574
  0
LINE
  8
0
 10
20.2492
 20
100.574
 11
20.5875
 21
100.82
  0
LINE
  8
0
 10
20.5875
 20
100.82
 11
20.9695
 21
100.99
  0
LINE
  8
0
 10
20.9695
 20
100.99
 11
21.3784
 21
101.077
  0
LINE
  8
0
 10
21.3784
 20
101.077
 11
21.7966
 21
101.077
  0
LINE
  8
0
 10
21.7966
 20
101.077
 11
22.2055
 21
100.99
  0
LINE
  8
0
 10
22.2055
 20
100.99
 11
22.5875
 21
100.82
  0
LINE
  8
0
 10
22.5875
 20
100.82
 11
22.9258
 21
100.574
  0
LINE
  8
0
 10
22.9258
 20
100.574
 11
23.2055
 21
100.263
  0
LINE
  8
0
 10
23.2055
 20
100.263
 11
23.4146
 21
99.901
  0
LINE
  8
0
 10
23.4146
 20
99.901
 11
23.5438
 21
99.5033
  0
LINE
  8
0
 10
23.5438
 20
99.5033
 11
23.5875
 21
99.0875
  0
LINE
  8
0
 10
23.5875
 20
99.0875
 11
23.5438
 21
98.6717
  0
LINE
  8
0
 10
23.5438
 20
98.6717
 11
23.4146
 21
98.274
  0
LINE
  8
0
 10
23.4146
 20
98.274
 11
23.2055
 21
97.9119
  0
LINE
  8
0
 10
23.2055
 20
97.9119
 11
22.9258
 21
97.6012
  0
LINE
  8
0
 10
22.9258
 20
97.6012
 11
22.5875
 21
97.3554
  0
LINE
  8
0
 10
22.5875
 20
97.3554
 11
22.2055
 21
97.1854
  0
LINE
  8
0
 10
22.2055
 20
97.1854
 11
21.7966
 21
97.0984
  0
LINE
  8
0
 10
21.7966
 20
97.0984
 11
21.3784
 21
97.0984
  0
LINE
  8
0
 10
293.878
 20
84.5984
 11
293.469
 21
84.6854
  0
LINE
  8
0
 10
293.469
 20
84.6854
 11
293.087
 21
84.8554
  0
LINE
  8
0
 10
293.087
 20
84.8554
 11
292.749
 21
85.1012
  0
LINE
  8
0
 10
292.749
 20
85.1012
 11
292.469
 21
85.4119
  0
LINE
  8
0
 10
292.469
 20
85.4119
 11
292.26
 21
85.774
  0
LINE
  8
0
 10
292.26
 20
85.774
 11
292.131
 21
86.1717
  0
LINE
  8
0
 10
292.131
 20
86.1717
 11
292.087
 21
86.5875
  0
LINE
  8
0
 10
292.087
 20
86.5875
 11
292.131
 21
87.0033
  0
LINE
  8
0
 10
292.131
 20
87.0033
 11
292.26
 21
87.401
  0
LINE
  8
0
 10
292.26
 20
87.401
 11
292.469
 21
87.7631
  0
LINE
  8
0
 10
292.469
 20
87.7631
 11
292.749
 21
88.0738
  0
LINE
  8
0
 10
292.749
 20
88.0738
 11
293.087
 21
88.3195
  0
LINE
  8
0
 10
293.087
 20
88.3195
 11
293.469
 21
88.4896
  0
LINE
  8
0
 10
293.469
 20
88.4896
 11
293.878
 21
88.5765
  0
LINE
  8
0
 10
293.878
 20
88.5765
 11
294.297
 21
88.5765
  0
LINE
  8
0
 10
294.297
 20
88.5765
 11
294.706
 21
88.4896
  0
LINE
  8
0
 10
294.706
 20
88.4896
 11
295.087
 21
88.3195
  0
LINE
  8
0
 10
295.087
 20
88.3195
 11
295.426
 21
88.0738
  0
LINE
  8
0
 10
295.426
 20
88.0738
 11
295.706
 21
87.7631
  0
LINE
  8
0
 10
295.706
 20
87.7631
 11
295.915
 21
87.401
  0
LINE
  8
0
 10
295.915
 20
87.401
 11
296.044
 21
87.0033
  0
LINE
  8
0
 10
296.044
 20
87.0033
 11
296.087
 21
86.5875
  0
LINE
  8
0
 10
296.087
 20
86.5875
 11
296.044
 21
86.1717
  0
LINE
  8
0
 10
296.044
 20
86.1717
 11
295.915
 21
85.774
  0
LINE
  8
0
 10
295.915
 20
85.774
 11
295.706
 21
85.4119
  0
LINE
  8
0
 10
295.706
 20
85.4119
 11
295.426
 21
85.1012
  0
LINE
  8
0
 10
295.426
 20
85.1012
 11
295.087
 21
84.8554
  0
LINE
  8
0
 10
295.087
 20
84.8554
 11
294.706
 21
84.6854
  0
LINE
  8
0
 10
294.706
 20
84.6854
 11
294.297
 21
84.5984
  0
LINE
  8
0
 10
294.297
 20
84.5984
 11
293.878
 21
84.5984
  0
LINE
  8
0
 10
8.87843
 20
84.5984
 11
8.46945
 21
84.6854
  0
LINE
  8
0
 10
8.46945
 20
84.6854
 11
8.08749
 21
84.8554
  0
LINE
  8
0
 10
8.08749
 20
84.8554
 11
7.74924
 21
85.1012
  0
LINE
  8
0
 10
7.74924
 20
85.1012
 11
7.46945
 21
85.4119
  0
LINE
  8
0
 10
7.46945
 20
85.4119
 11
7.26041
 21
85.774
  0
LINE
  8
0
 10
7.26041
 20
85.774
 11
7.1312
 21
86.1717
  0
LINE
  8
0
 10
7.1312
 20
86.1717
 11
7.08749
 21
86.5875
  0
LINE
  8
0
 10
7.08749
 20
86.5875
 11
7.1312
 21
87.0033
  0
LINE
  8
0
 10
7.1312
 20
87.0033
 11
7.26041
 21
87.401
  0
LINE
  8
0
 10
7.26041
 20
87.401
 11
7.46945
 21
87.7631
  0
LINE
  8
0
 10
7.46945
 20
87.7631
 11
7.74924
 21
88.0738
  0
LINE
  8
0
 10
7.74924
 20
88.0738
 11
8.08749
 21
88.3195
  0
LINE
  8
0
 10
8.08749
 20
88.3195
 11
8.46945
 21
88.4896
  0
LINE
  8
0
 10
8.46945
 20
88.4896
 11
8.87843
 21
88.5765
  0
LINE
  8
0
 10
8.87843
 20
88.5765
 11
9.29655
 21
88.5765
  0
LINE
  8
0
 10
9.29655
 20
88.5765
 11
9.70552
 21
88.4896
  0
LINE
  8
0
 10
9.70552
 20
88.4896
 11
10.0875
 21
88.3195
  0
LINE
  8
0
 10
10.0875
 20
88.3195
 11
10.4258
 21
88.0738
  0
LINE
  8
0
 10
10.4258
 20
88.0738
 11
10.7055
 21
87.7631
  0
LINE
  8
0
 10
10.7055
 20
87.7631
 11
10.9146
 21
87.401
  0
LINE
  8
0
 10
10.9146
 20
87.401
 11
11.0438
 21
87.0033
  0
LINE
  8
0
 10
11.0438
 20
87.0033
 11
11.0875
 21
86.5875
  0
LINE
  8
0
 10
11.0875
 20
86.5875
 11
11.0438
 21
86.1717
  0
LINE
  8
0
 10
11.0438
 20
86.1717
 11
10.9146
 21
85.774
  0
LINE
  8
0
 10
10.9146
 20
85.774
 11
10.7055
 21
85.4119
  0
LINE
  8
0
 10
10.7055
 20
85.4119
 11
10.4258
 21
85.1012
  0
LINE
  8
0
 10
10.4258
 20
85.1012
 11
10.0875
 21
84.8554
  0
LINE
  8
0
 10
10.0875
 20
84.8554
 11
9.70552
 21
84.6854
  0
LINE
  8
0
 10
9.70552
 20
84.6854
 11
9.29655
 21
84.5984
  0
LINE
  8
0
 10
9.29655
 20
84.5984
 11
8.87843
 21
84.5984
  0
LINE
  8
0
 10
8.87843
 20
19.5984
 11
8.46945
 21
19.6854
  0
LINE
  8
0
 10
8.46945
 20
19.6854
 11
8.08749
 21
19.8554
  0
LINE
  8
0
 10
8.08749
 20
19.8554
 11
7.74924
 21
20.1012
  0
LINE
  8
0
 10
7.74924
 20
20.1012
 11
7.46945
 21
20.4119
  0
LINE
  8
0
 10
7.46945
 20
20.4119
 11
7.26041
 21
20.774
  0
LINE
  8
0
 10
7.26041
 20
20.774
 11
7.1312
 21
21.1717
  0
LINE
  8
0
 10
7.1312
 20
21.1717
 11
7.08749
 21
21.5875
  0
LINE
  8
0
 10
7.08749
 20
21.5875
 11
7.1312
 21
22.0033
  0
LINE
  8
0
 10
7.1312
 20
22.0033
 11
7.26041
 21
22.401
  0
LINE
  8
0
 10
7.26041
 20
22.401
 11
7.46945
 21
22.7631
  0
LINE
  8
0
 10
7.46945
 20
22.7631
 11
7.74924
 21
23.0738
  0
LINE
  8
0
 10
7.74924
 20
23.0738
 11
8.08749
 21
23.3195
  0
LINE
  8
0
 10
8.08749
 20
23.3195
 11
8.46945
 21
23.4896
  0
LINE
  8
0
 10
8.46945
 20
23.4896
 11
8.87843
 21
23.5765
  0
LINE
  8
0
 10
8.87843
 20
23.5765
 11
9.29655
 21
23.5765
  0
LINE
  8
0
 10
9.29655
 20
23.5765
 11
9.70552
 21
23.4896
  0
LINE
  8
0
 10
9.70552
 20
23.4896
 11
10.0875
 21
23.3195
  0
LINE
  8
0
 10
10.0875
 20
23.3195
 11
10.4258
 21
23.0738
  0
LINE
  8
0
 10
10.4258
 20
23.0738
 11
10.7055
 21
22.7631
  0
LINE
  8
0
 10
10.7055
 20
22.7631
 11
10.9146
 21
22.401
  0
LINE
  8
0
 10
10.9146
 20
22.401
 11
11.0438
 21
22.0033
  0
LINE
  8
0
 10
11.0438
 20
22.0033
 11
11.0875
 21
21.5875
  0
LINE
  8
0
 10
11.0875
 20
21.5875
 11
11.0438
 21
21.1717
  0
LINE
  8
0
 10
11.0438
 20
21.1717
 11
10.9146
 21
20.774
  0
LINE
  8
0
 10
10.9146
 20
20.774
 11
10.7055
 21
20.4119
  0
LINE
  8
0
 10
10.7055
 20
20.4119
 11
10.4258
 21
20.1012
  0
LINE
  8
0
 10
10.4258
 20
20.1012
 11
10.0875
 21
19.8554
  0
LINE
  8
0
 10
10.0875
 20
19.8554
 11
9.70552
 21
19.6854
  0
LINE
  8
0
 10
9.70552
 20
19.6854
 11
9.29655
 21
19.5984
  0
LINE
  8
0
 10
9.29655
 20
19.5984
 11
8.87843
 21
19.5984
  0
LINE
  8
0
 10
293.878
 20
19.5984
 11
293.469
 21
19.6854
  0
LINE
  8
0
 10
293.469
 20
19.6854
 11
293.087
 21
19.8554
  0
LINE
  8
0
 10
293.087
 20
19.8554
 11
292.749
 21
20.1012
  0
LINE
  8
0
 10
292.749
 20
20.1012
 11
292.469
 21
20.4119
  0
LINE
  8
0
 10
292.469
 20
20.4119
 11
292.26
 21
20.774
  0
LINE
  8
0
 10
292.26
 20
20.774
 11
292.131
 21
21.1717
  0
LINE
  8
0
 10
292.131
 20
21.1717
 11
292.087
 21
21.5875
  0
LINE
  8
0
 10
292.087
 20
21.5875
 11
292.131
 21
22.0033
  0
LINE
  8
0
 10
292.131
 20
22.0033
 11
292.26
 21
22.401
  0
LINE
  8
0
 10
292.26
 20
22.401
 11
292.469
 21
22.7631
  0
LINE
  8
0
 10
292.469
 20
22.7631
 11
292.749
 21
23.0738
  0
LINE
  8
0
 10
292.749
 20
23.0738
 11
293.087
 21
23.3195
  0
LINE
  8
0
 10
293.087
 20
23.3195
 11
293.469
 21
23.4896
  0
LINE
  8
0
 10
293.469
 20
23.4896
 11
293.878
 21
23.5765
  0
LINE
  8
0
 10
293.878
 20
23.5765
 11
294.297
 21
23.5765
  0
LINE
  8
0
 10
294.297
 20
23.5765
 11
294.706
 21
23.4896
  0
LINE
  8
0
 10
294.706
 20
23.4896
 11
295.087
 21
23.3195
  0
LINE
  8
0
 10
295.087
 20
23.3195
 11
295.426
 21
23.0738
  0
LINE
  8
0
 10
295.426
 20
23.0738
 11
295.706
 21
22.7631
  0
LINE
  8
0
 10
295.706
 20
22.7631
 11
295.915
 21
22.401
  0
LINE
  8
0
 10
295.915
 20
22.401
 11
296.044
 21
22.0033
  0
LINE
  8
0
 10
296.044
 20
22.0033
 11
296.087
 21
21.5875
  0
LINE
  8
0
 10
296.087
 20
21.5875
 11
296.044
 21
21.1717
  0
LINE
  8
0
 10
296.044
 20
21.1717
 11
295.915
 21
20.774
  0
LINE
  8
0
 10
295.915
 20
20.774
 11
295.706
 21
20.4119
  0
LINE
  8
0
 10
295.706
 20
20.4119
 11
295.426
 21
20.1012
  0
LINE
  8
0
 10
295.426
 20
20.1012
 11
295.087
 21
19.8554
  0
LINE
  8
0
 10
295.087
 20
19.8554
 11
294.706
 21
19.6854
  0
LINE
  8
0
 10
294.706
 20
19.6854
 11
294.297
 21
19.5984
  0
LINE
  8
0
 10
294.297
 20
19.5984
 11
293.878
 21
19.5984
  0
LINE
  8
0
 10
281.378
 20
7.09845
 11
280.969
 21
7.18538
  0
LINE
  8
0
 10
280.969
 20
7.18538
 11
280.587
 21
7.35544
  0
LINE
  8
0
 10
280.587
 20
7.35544
 11
280.249
 21
7.6012
  0
LINE
  8
0
 10
280.249
 20
7.6012
 11
279.969
 21
7.91193
  0
LINE
  8
0
 10
279.969
 20
7.91193
 11
279.76
 21
8.27402
  0
LINE
  8
0
 10
279.76
 20
8.27402
 11
279.631
 21
8.67166
  0
LINE
  8
0
 10
279.631
 20
8.67166
 11
279.587
 21
9.08749
  0
LINE
  8
0
 10
279.587
 20
9.08749
 11
279.631
 21
9.50331
  0
LINE
  8
0
 10
279.631
 20
9.50331
 11
279.76
 21
9.90097
  0
LINE
  8
0
 10
279.76
 20
9.90097
 11
279.969
 21
10.2631
  0
LINE
  8
0
 10
279.969
 20
10.2631
 11
280.249
 21
10.5738
  0
LINE
  8
0
 10
280.249
 20
10.5738
 11
280.587
 21
10.8195
  0
LINE
  8
0
 10
280.587
 20
10.8195
 11
280.969
 21
10.9896
  0
LINE
  8
0
 10
280.969
 20
10.9896
 11
281.378
 21
11.0765
  0
LINE
  8
0
 10
281.378
 20
11.0765
 11
281.797
 21
11.0765
  0
LINE
  8
0
 10
281.797
 20
11.0765
 11
282.206
 21
10.9896
  0
LINE
  8
0
 10
282.206
 20
10.9896
 11
282.587
 21
10.8195
  0
LINE
  8
0
 10
282.587
 20
10.8195
 11
282.926
 21
10.5738
  0
LINE
  8
0
 10
282.926
 20
10.5738
 11
283.206
 21
10.2631
  0
LINE
  8
0
 10
283.206
 20
10.2631
 11
283.415
 21
9.90097
  0
LINE
  8
0
 10
283.415
 20
9.90097
 11
283.544
 21
9.50331
  0
LINE
  8
0
 10
283.544
 20
9.50331
 11
283.587
 21
9.08749
  0
LINE
  8
0
 10
283.587
 20
9.08749
 11
283.544
 21
8.67166
  0
LINE
  8
0
 10
283.544
 20
8.67166
 11
283.415
 21
8.27402
  0
LINE
  8
0
 10
283.415
 20
8.27402
 11
283.206
 21
7.91193
  0
LINE
  8
0
 10
283.206
 20
7.91193
 11
282.926
 21
7.6012
  0
LINE
  8
0
 10
282.926
 20
7.6012
 11
282.587
 21
7.35544
  0
LINE
  8
0
 10
282.587
 20
7.35544
 11
282.206
 21
7.18538
  0
LINE
  8
0
 10
282.206
 20
7.18538
 11
281.797
 21
7.09845
  0
LINE
  8
0
 10
281.797
 20
7.09845
 11
281.378
 21
7.09845
  0
LINE
  8
0
 10
21.3784
 20
7.09845
 11
20.9695
 21
7.18538
  0
LINE
  8
0
 10
20.9695
 20
7.18538
 11
20.5875
 21
7.35544
  0
LINE
  8
0
 10
20.5875
 20
7.35544
 11
20.2492
 21
7.6012
  0
LINE
  8
0
 10
20.2492
 20
7.6012
 11
19.9695
 21
7.91193
  0
LINE
  8
0
 10
19.9695
 20
7.91193
 11
19.7604
 21
8.27402
  0
LINE
  8
0
 10
19.7604
 20
8.27402
 11
19.6312
 21
8.67166
  0
LINE
  8
0
 10
19.6312
 20
8.67166
 11
19.5875
 21
9.08749
  0
LINE
  8
0
 10
19.5875
 20
9.08749
 11
19.6312
 21
9.50331
  0
LINE
  8
0
 10
19.6312
 20
9.50331
 11
19.7604
 21
9.90097
  0
LINE
  8
0
 10
19.7604
 20
9.90097
 11
19.9695
 21
10.2631
  0
LINE
  8
0
 10
19.9695
 20
10.2631
 11
20.2492
 21
10.5738
  0
LINE
  8
0
 10
20.2492
 20
10.5738
 11
20.5875
 21
10.8195
  0
LINE
  8
0
 10
20.5875
 20
10.8195
 11
20.9695
 21
10.9896
  0
LINE
  8
0
 10
20.9695
 20
10.9896
 11
21.3784
 21
11.0765
  0
LINE
  8
0
 10
21.3784
 20
11.0765
 11
21.7966
 21
11.0765
  0
LINE
  8
0
 10
21.7966
 20
11.0765
 11
22.2055
 21
10.9896
  0
LINE
  8
0
 10
22.2055
 20
10.9896
 11
22.5875
 21
10.8195
  0
LINE
  8
0
 10
22.5875
 20
10.8195
 11
22.9258
 21
10.5738
  0
LINE
  8
0
 10
22.9258
 20
10.5738
 11
23.2055
 21
10.2631
  0
LINE
  8
0
 10
23.2055
 20
10.2631
 11
23.4146
 21
9.90097
  0
LINE
  8
0
 10
23.4146
 20
9.90097
 11
23.5438
 21
9.50331
  0
LINE
  8
0
 10
23.5438
 20
9.50331
 11
23.5875
 21
9.08749
  0
LINE
  8
0
 10
23.5875
 20
9.08749
 11
23.5438
 21
8.67166
  0
LINE
  8
0
 10
23.5438
 20
8.67166
 11
23.4146
 21
8.27402
  0
LINE
  8
0
 10
23.4146
 20
8.27402
 11
23.2055
 21
7.91193
  0
LINE
  8
0
 10
23.2055
 20
7.91193
 11
22.9258
 21
7.6012
  0
LINE
  8
0
 10
22.9258
 20
7.6012
 11
22.5875
 21
7.35544
  0
LINE
  8
0
 10
22.5875
 20
7.35544
 11
22.2055
 21
7.18538
  0
LINE
  8
0
 10
22.2055
 20
7.18538
 11
21.7966
 21
7.09845
  0
LINE
  8
0
 10
21.7966
 20
7.09845
 11
21.3784
 21
7.09845
  0
ENDSEC
  0
SECTION
  2
OBJECTS
  0
DICTIONARY
  0
ENDSEC
  0
EOF
